<svg width="26" height="26" viewBox="0 0 26 26" fill="none" xmlns="http://www.w3.org/2000/svg">
<path d="M12.5652 0.574613C12.4479 0.618586 12.2574 0.745619 12.145 0.857995C11.7542 1.24398 11.7786 0.897082 11.7786 6.65755V11.778H6.65839C0.898183 11.778 1.24507 11.7584 0.859097 12.1444C0.380301 12.6232 0.380301 13.3757 0.859097 13.8545C1.24507 14.2405 0.898183 14.2209 6.65839 14.2209H11.7786V19.3413C11.7786 25.1018 11.759 24.7549 12.145 25.1409C12.6238 25.6197 13.3762 25.6197 13.855 25.1409C14.241 24.7549 14.2214 25.1018 14.2214 19.3413V14.2209H19.3416C25.1018 14.2209 24.7549 14.2405 25.1409 13.8545C25.6197 13.3757 25.6197 12.6232 25.1409 12.1444C24.7549 11.7584 25.1018 11.778 19.3416 11.778H14.2214V6.65755C14.2214 0.897082 14.241 1.24398 13.855 0.857995C13.5179 0.515982 13.0293 0.413378 12.5652 0.574613Z" fill="white"/>
</svg>
