<svg width="10" height="10" viewBox="0 0 10 10" fill="none" xmlns="http://www.w3.org/2000/svg">
<path d="M1.15005 0.660027C0.918047 0.690026 0.752047 0.772026 0.594047 0.938026C0.444047 1.09403 0.364047 1.26803 0.340047 1.48603C0.314047 1.70403 0.316047 6.46403 0.340047 6.65803C0.386047 7.00603 0.654047 7.33803 0.974047 7.44203C1.09605 7.48203 1.16405 7.48603 1.65405 7.49603L2.19805 7.50403L2.20405 8.31803C2.21005 9.09203 2.21205 9.13403 2.25005 9.20003C2.30005 9.28603 2.40205 9.34003 2.51005 9.34003C2.60605 9.34003 2.65605 9.30603 3.08805 8.96003C3.49205 8.63603 3.75805 8.42403 3.99005 8.24003C4.10005 8.15403 4.33405 7.96403 4.51005 7.82003C4.68605 7.67603 4.85805 7.54603 4.89005 7.53003C4.94005 7.50603 5.24605 7.50003 6.92005 7.49603L8.89005 7.49003L9.02605 7.44403C9.16005 7.39803 9.31605 7.28803 9.44205 7.15403C9.54005 7.04803 9.63805 6.82203 9.66005 6.65803C9.68605 6.46203 9.68605 1.70403 9.66005 1.48403C9.61005 1.03603 9.28405 0.710027 8.83405 0.660027C8.64005 0.636026 1.33005 0.638026 1.15005 0.660027ZM7.67605 3.16003C7.77205 3.22003 7.82005 3.31003 7.82005 3.44003C7.82005 3.57003 7.77205 3.66003 7.67605 3.72003C7.61205 3.76003 7.57005 3.76003 5.00005 3.76003C2.43005 3.76003 2.38805 3.76003 2.32405 3.72003C2.22805 3.66003 2.18005 3.57003 2.18005 3.44003C2.18005 3.31003 2.22805 3.22003 2.32405 3.16003C2.38805 3.12003 2.43005 3.12003 5.00005 3.12003C7.57005 3.12003 7.61205 3.12003 7.67605 3.16003ZM5.17605 4.40003C5.27605 4.46203 5.32005 4.55003 5.32005 4.69003C5.32005 4.77403 5.30805 4.83003 5.28005 4.87403C5.20205 5.00203 5.23605 5.00003 3.74205 5.00003C2.51005 4.99803 2.38405 4.99603 2.32005 4.96403C2.22805 4.92003 2.18005 4.82003 2.18005 4.68003C2.18005 4.55003 2.22805 4.46003 2.32405 4.40003C2.38805 4.36203 2.42805 4.36003 3.75005 4.36003C5.07205 4.36003 5.11205 4.36203 5.17605 4.40003Z" fill="#7F7F7F"/>
</svg>
