<svg width="15" height="15" viewBox="0 0 15 15" fill="none" xmlns="http://www.w3.org/2000/svg">
<path d="M3.62205 0.16455C3.51537 0.213548 3.42022 0.314425 3.37985 0.421065C3.36256 0.46718 3.34814 0.674699 3.34814 0.887981V1.27131L2.50623 1.28284C1.67875 1.29149 1.65568 1.29437 1.44232 1.36931C0.842607 1.57971 0.424538 1.99475 0.214062 2.58848L0.133331 2.81905V8.07906V13.3391L0.214062 13.5696C0.424538 14.1634 0.839724 14.5755 1.44232 14.7888L1.66145 14.8666H7.5H13.3385L13.5692 14.7859C14.1632 14.5755 14.5755 14.1605 14.7888 13.5581L14.8667 13.3391V8.07906V2.81905L14.7888 2.60001C14.5755 1.99763 14.1632 1.58259 13.5692 1.37219C13.3414 1.29437 13.3328 1.29149 12.4966 1.28284L11.6547 1.27131L11.6461 0.844748C11.6374 0.377832 11.623 0.334599 11.4385 0.199137C11.3261 0.115553 11.055 0.115553 10.9426 0.199137C10.7581 0.334599 10.7436 0.377832 10.735 0.847631L10.7263 1.27708H7.5H4.27366L4.26501 0.847631C4.25636 0.380714 4.24194 0.334599 4.06318 0.202019C3.96515 0.129964 3.73738 0.109788 3.62205 0.16455ZM3.35391 2.51354C3.36256 2.85364 3.3885 2.91993 3.5615 3.04675C3.67394 3.13033 3.94497 3.13033 4.05741 3.04675C4.23041 2.91993 4.25636 2.85364 4.26501 2.51354L4.27654 2.19938H7.5H10.7235L10.735 2.51354C10.7436 2.85364 10.7696 2.91993 10.9426 3.04675C11.055 3.13033 11.3261 3.13033 11.4385 3.04675C11.6115 2.91993 11.6374 2.85364 11.6461 2.51354L11.6576 2.1965L12.439 2.20515L13.2232 2.21379L13.3876 2.29449C13.5952 2.39537 13.7624 2.56254 13.8633 2.77006C13.944 2.93434 13.944 2.93722 13.9527 3.60301L13.9613 4.27456H7.50288H1.04155V3.66066C1.04155 3.20527 1.05308 3.00928 1.08192 2.90552C1.1713 2.61442 1.42214 2.35214 1.71334 2.25126C1.84309 2.20803 1.96995 2.20226 2.60426 2.19938H3.34237L3.35391 2.51354ZM13.9527 9.20888L13.944 13.2238L13.8662 13.3823C13.7653 13.5869 13.5865 13.7656 13.3847 13.8665L13.2232 13.9443H7.5H1.77678L1.6182 13.8665C1.41349 13.7656 1.23473 13.5869 1.13381 13.3852L1.05597 13.2238L1.04732 9.20888L1.04155 5.19687H7.5H13.9584L13.9527 9.20888Z" fill="#7F7F7F"/>
</svg>
