<svg width="21" height="18" viewBox="0 0 21 18" fill="none" xmlns="http://www.w3.org/2000/svg">
<path d="M1.82671 0.751996C1.37471 0.903996 1.03071 1.216 0.814711 1.672C0.698711 1.916 0.686711 1.972 0.690711 2.32C0.690711 2.612 0.710711 2.752 0.778711 2.928C1.21471 4.032 2.60271 4.344 3.47071 3.532C3.84671 3.184 4.00671 2.764 3.97871 2.216C3.96271 1.944 3.93871 1.84 3.82671 1.616C3.65871 1.272 3.39071 1.004 3.03871 0.835996C2.81071 0.719996 2.72671 0.699996 2.41071 0.691996C2.13871 0.683996 1.99071 0.699996 1.82671 0.751996Z" fill="#029AAD"/>
<path d="M7.18671 1.516C6.51871 1.652 6.27471 2.44 6.75071 2.916C6.83471 3 6.97071 3.088 7.05871 3.112C7.27871 3.18 19.9107 3.18 20.1107 3.116C20.3987 3.02 20.6627 2.656 20.6667 2.356C20.6667 2.028 20.4787 1.716 20.1907 1.584L20.0067 1.5L13.6667 1.496C10.1787 1.492 7.26271 1.5 7.18671 1.516Z" fill="#029AAD"/>
<path d="M1.98671 7.376C0.70271 7.66 0.234711 9.244 1.15871 10.168C1.97071 10.98 3.30671 10.756 3.81471 9.728C3.96271 9.436 3.96671 9.408 3.96671 9C3.96671 8.592 3.96271 8.564 3.81871 8.272C3.57871 7.796 3.19071 7.488 2.68271 7.38C2.35871 7.312 2.27871 7.312 1.98671 7.376Z" fill="#029AAD"/>
<path d="M7.05071 8.22C6.61071 8.376 6.38671 8.91199 6.58271 9.34C6.67471 9.54399 6.89871 9.74399 7.09471 9.79599C7.19871 9.82799 9.28671 9.84 13.5907 9.84C20.6707 9.84 20.1707 9.85999 20.4427 9.55999C20.7387 9.23199 20.7387 8.76799 20.4427 8.44C20.1707 8.14 20.6747 8.16 13.5707 8.16C8.27071 8.16399 7.18271 8.172 7.05071 8.22Z" fill="#029AAD"/>
<path d="M1.91871 14.06C1.59871 14.148 1.39471 14.268 1.16271 14.496C0.406711 15.256 0.546711 16.496 1.45871 17.076C1.92271 17.368 2.55871 17.404 3.05071 17.16C3.39071 16.992 3.66271 16.724 3.83071 16.376C4.06271 15.908 4.03471 15.28 3.76271 14.816C3.61871 14.568 3.29871 14.292 3.00671 14.152C2.68671 14.004 2.24671 13.968 1.91871 14.06Z" fill="#029AAD"/>
<path d="M7.03071 14.896C6.83871 14.964 6.61071 15.204 6.55471 15.392C6.42271 15.824 6.57471 16.204 6.96671 16.412L7.12671 16.5H20.0067L20.1907 16.416C20.4787 16.284 20.6667 15.972 20.6667 15.644C20.6627 15.344 20.3987 14.98 20.1107 14.884C19.9067 14.816 7.21871 14.828 7.03071 14.896Z" fill="#029AAD"/>
</svg>
