<svg width="10" height="10" viewBox="0 0 10 10" fill="none" xmlns="http://www.w3.org/2000/svg">
<path d="M4.70983 0.0219736C3.93183 0.0679741 3.20983 0.293974 2.46983 0.719974C1.81383 1.09597 1.09983 1.80597 0.727832 2.45197C0.391832 3.02997 0.179832 3.61397 0.063832 4.25997C0.015832 4.53197 0.015832 5.46797 0.063832 5.73997C0.209832 6.56597 0.541832 7.34197 1.01783 7.97997C1.22783 8.26197 1.71783 8.75597 1.99183 8.96197C2.63983 9.44997 3.46583 9.80397 4.25183 9.92997C4.67583 9.99997 5.32183 9.99997 5.74583 9.93197C6.52783 9.80597 7.33383 9.46197 7.97983 8.98197C8.27783 8.75997 8.75983 8.27797 8.98183 7.97997C9.46183 7.33397 9.78783 6.56797 9.93583 5.73997C9.98383 5.46797 9.98383 4.53197 9.93583 4.25997C9.88383 3.97597 9.77383 3.55597 9.68983 3.32997C9.51983 2.87197 9.21383 2.31397 8.92383 1.94197C8.73183 1.69197 8.24183 1.21397 7.97783 1.01597C7.21783 0.449974 6.22583 0.0759735 5.36183 0.029974C5.24583 0.0239735 5.10983 0.015974 5.05983 0.0119734C5.00983 0.00797367 4.85183 0.0119734 4.70983 0.0219736ZM5.22983 2.12997C5.28583 2.16197 5.33983 2.21597 5.37383 2.27597L5.42983 2.36997L5.43583 3.69597L5.44183 5.02197L6.44183 6.02197C7.52783 7.10797 7.49983 7.07397 7.49983 7.29997C7.49983 7.49197 7.41783 7.61997 7.25583 7.68797C7.15383 7.73197 6.98783 7.72797 6.88983 7.68197C6.83583 7.65597 6.44583 7.27997 5.70783 6.53597L4.60383 5.42997L4.57983 5.31997C4.56383 5.23997 4.55983 4.82397 4.56383 3.78997L4.56983 2.36997L4.62383 2.27597C4.67983 2.18397 4.76983 2.11197 4.87583 2.07797C4.96783 2.04997 5.13383 2.07197 5.22983 2.12997Z" fill="#7F7F7F"/>
</svg>
