<svg width="13" height="15" viewBox="0 0 13 15" fill="none" xmlns="http://www.w3.org/2000/svg">
<path d="M1.07611 0.0449924C0.581115 0.152992 0.140115 0.608992 0.0501149 1.10999C0.0291149 1.21799 0.0231149 2.97599 0.0261149 6.08999L0.0351149 10.905H1.38511L1.40012 1.34999H9.56012V-7.62939e-06L5.41411 0.00299237C2.03011 0.00299237 1.22911 0.0119924 1.07611 0.0449924Z" fill="#7F7F7F"/>
<path d="M3.83312 2.76299C3.31412 2.86499 2.86411 3.33299 2.78011 3.85799C2.74111 4.09799 2.74111 13.632 2.78011 13.875C2.86712 14.403 3.34711 14.883 3.87511 14.97C3.98611 14.988 5.53112 15 7.88012 15C12.0711 15 11.9541 15.003 12.2721 14.823C12.6111 14.628 12.8841 14.253 12.9501 13.887C12.9711 13.779 12.9771 12.018 12.9741 8.75699L12.9651 3.79499L12.8961 3.62399C12.7491 3.25799 12.4521 2.96399 12.0801 2.81099L11.9151 2.74499L7.94011 2.73899C5.75311 2.73899 3.90512 2.74799 3.83312 2.76299ZM11.6001 13.65L4.11512 13.635L4.10611 8.89499C4.10312 6.28799 4.10611 4.13699 4.11512 4.11599C4.12411 4.08899 4.90412 4.07999 7.86512 4.07999H11.6001V13.65Z" fill="#7F7F7F"/>
</svg>
