<svg width="16" height="17" viewBox="0 0 16 17" fill="none" xmlns="http://www.w3.org/2000/svg">
<rect y="0.5" width="16" height="16" rx="8" fill="#FF0000"/>
<path d="M4.63923 5.81137C4.45362 5.62575 4.45362 5.32482 4.63923 5.13921C4.82484 4.9536 5.12578 4.9536 5.31139 5.13921L11.3608 11.1886C11.5464 11.3742 11.5464 11.6752 11.3608 11.8608C11.1752 12.0464 10.8742 12.0464 10.6886 11.8608L4.63923 5.81137Z" fill="white"/>
<path d="M10.6886 5.13922C10.8742 4.95361 11.1752 4.95361 11.3608 5.13922C11.5464 5.32483 11.5464 5.62577 11.3608 5.81138L5.31136 11.8608C5.12575 12.0464 4.82482 12.0464 4.63921 11.8608C4.4536 11.6752 4.4536 11.3742 4.63921 11.1886L10.6886 5.13922Z" fill="white"/>
</svg>
