<svg width="16" height="17" viewBox="0 0 16 17" fill="none" xmlns="http://www.w3.org/2000/svg">
<rect y="0.5" width="16" height="16" rx="8" fill="#00C608"/>
<path d="M4.14866 9.11118C3.95045 8.90794 3.95045 8.57842 4.14866 8.37518C4.34687 8.17194 4.66823 8.17194 4.86644 8.37518L7.01979 10.5832C7.218 10.7864 7.218 11.1159 7.01979 11.3192C6.82158 11.5224 6.50022 11.5224 6.30201 11.3192L4.14866 9.11118Z" fill="white"/>
<path d="M11.1299 5.65308C11.3289 5.44897 11.6517 5.44897 11.8507 5.65308C12.0498 5.85718 12.0498 6.18809 11.8507 6.39219L7.0186 11.3469C6.81955 11.551 6.49683 11.551 6.29778 11.3469C6.09873 11.1428 6.09873 10.8119 6.29778 10.6078L11.1299 5.65308Z" fill="white"/>
</svg>
