<svg width="70" height="52" viewBox="0 0 70 52" fill="none" xmlns="http://www.w3.org/2000/svg">
<path d="M1.78217 31.195C0.0726091 29.4675 0.0726091 26.6666 1.78217 24.939C3.49174 23.2115 6.26349 23.2115 7.97305 24.939L26.5457 43.707C28.2553 45.4345 28.2553 48.2354 26.5457 49.9629C24.8361 51.6905 22.0644 51.6905 20.3548 49.9629L1.78217 31.195Z" fill="#029AAD"/>
<path d="M61.9953 1.80114C63.7121 0.0662848 66.4956 0.0662871 68.2124 1.80114C69.9292 3.536 69.9292 6.34876 68.2124 8.08361L26.5354 50.1989C24.8186 51.9337 22.0351 51.9337 20.3183 50.1989C18.6015 48.464 18.6015 45.6512 20.3183 43.9164L61.9953 1.80114Z" fill="#029AAD"/>
</svg>
