<svg width="110" height="22" viewBox="0 0 110 22" fill="none" xmlns="http://www.w3.org/2000/svg">
<g clip-path="url(#clip0_4656_23179)">
<path d="M67.9145 4.03999L63.519 7.31394L64.4338 0.766052H68.3719L67.9145 4.03999Z" fill="#FF7A01"/>
<path d="M65.5187 21.2369L67.6354 6.0336L63.2233 9.44493L61.5806 21.2369H65.5187Z" fill="#029AAD"/>
<path d="M16.3994 21.237H2.8032C0.680795 21.237 -0.264668 20.5413 0.0644315 18.191L2.08922 3.64541C2.17581 2.83031 2.53437 2.0735 3.10162 1.50858C3.65942 0.982408 4.52401 0.7164 5.71768 0.7164H19.0016L17.3281 3.79449H7.4078C6.49302 3.79449 5.96869 4.08681 5.82645 5.0836L5.37743 8.32247L5.24356 9.22573H16.0146L14.2715 12.3039H4.81126L4.14749 17.0481H4.16144C4.11934 17.1973 4.11231 17.355 4.14097 17.5078C4.16962 17.6604 4.2331 17.8037 4.32599 17.925C4.49146 18.0907 4.93212 18.1735 5.64795 18.1735H18.1315L16.3994 21.237Z" fill="#029AAD"/>
<path d="M45.0757 11.0059H53.2585C54.2933 11.0059 55.0518 10.7136 55.5315 10.0968C55.9202 9.60569 56.2111 8.66736 56.4045 7.28178C56.5997 5.87281 56.4826 4.92571 56.053 4.43754C55.6905 4.02829 54.9877 3.82075 53.9307 3.82075H47.5411C46.5984 3.82075 46.0099 4.29138 45.8677 5.28233L45.0757 11.0059ZM44.6879 13.7829L43.6449 21.2662H39.7041L42.0803 4.22999C42.4094 1.86223 43.6616 0.739737 45.9403 0.739737H55.855C60.0804 0.739737 61.0454 3.15134 60.4903 7.1327C59.9883 10.6989 58.6441 13.8764 54.7088 13.8764H52.023L52.0035 14.0255L58.9369 21.2662H53.9809L48.0403 14.6101C47.2287 13.6338 46.498 13.7829 44.6936 13.7829H44.6879ZM41.6676 0.722197L31.5017 19.2697C31.1496 19.9667 30.6172 20.5456 29.9655 20.9401C29.3139 21.3345 28.5694 21.5286 27.8175 21.5C26.1832 21.5 25.1605 20.7566 24.7496 19.2697L19.7462 0.722197H24.0189L27.9513 17.2936C28.1326 17.9659 28.5733 17.7905 28.8466 17.2936L37.3976 0.722197H41.6676ZM87.1278 21.2515H82.1383L74.6389 13.3591C73.1327 11.7805 73.4562 9.76062 75.0292 8.40427L84.0154 0.722197H88.8821L78.6911 9.1526C77.9466 9.76061 77.5504 10.2692 77.4919 10.6785C77.4138 11.2456 77.7318 11.8887 78.4457 12.6137L87.1278 21.2515ZM73.0909 21.2515H69.1473L72.0116 0.722197H75.9524L73.0909 21.2515ZM110 21.2515H105.853L104.425 16.06H94.3597L91.5177 21.2662H87.3677L97.8236 2.82103C98.7913 1.12267 99.6754 0.50296 101.578 0.50296C103.312 0.50296 104.163 1.06421 104.69 2.82103L110 21.2515ZM103.792 13.3181L101.561 4.96078C101.402 4.39369 101.243 4.11015 101.081 4.11015C100.919 4.11015 100.685 4.40245 100.367 4.96078L95.7625 13.3181H103.792Z" fill="#029AAD"/>
</g>
<defs>
<clipPath id="clip0_4656_23179">
<rect width="110" height="21" fill="white" transform="translate(0 0.5)"/>
</clipPath>
</defs>
</svg>
