<svg width="15" height="15" viewBox="0 0 15 15" fill="none" xmlns="http://www.w3.org/2000/svg">
<path d="M10.3436 11.5416C10.344 11.8569 10.468 12.1595 10.689 12.3844L10.6889 12.3844L10.6918 12.3871C10.9207 12.6024 11.2231 12.7222 11.5373 12.7222C11.8515 12.7222 12.1539 12.6024 12.3827 12.3871L12.3835 12.3864L11.5041 10.4437L11.5012 10.3438C11.5007 10.3438 11.5001 10.3438 11.4996 10.3438C11.1982 10.3531 10.9115 10.4765 10.6976 10.6891M10.3436 11.5416C10.342 11.383 10.3726 11.2257 10.4334 11.0792C10.4942 10.9327 10.5841 10.8 10.6976 10.6891M10.3436 11.5416C10.3436 11.5417 10.3436 11.5419 10.3437 11.5421L10.4436 11.541L10.3436 11.5411C10.3436 11.5413 10.3436 11.5414 10.3436 11.5416ZM10.6976 10.6891C10.6976 10.689 10.6977 10.6889 10.6978 10.6888L10.7677 10.7604L10.6972 10.6895C10.6973 10.6894 10.6974 10.6892 10.6976 10.6891ZM6.12493 1.60627V1.50627H6.02493H2.34266C2.12082 1.50627 1.90806 1.59439 1.7512 1.75126C1.59433 1.90813 1.50621 2.12088 1.50621 2.34272V12.6531C1.50621 12.8749 1.59433 13.0877 1.7512 13.2445C1.90806 13.4014 2.12082 13.4895 2.34266 13.4895H7.49783C7.66663 13.4895 7.82851 13.5566 7.94787 13.6759C8.06723 13.7953 8.13428 13.9572 8.13428 14.126C8.13428 14.2948 8.06723 14.4567 7.94787 14.576C7.82852 14.6954 7.66663 14.7624 7.49783 14.7624H2.34266C1.78322 14.7624 1.2467 14.5402 0.851118 14.1446C0.455536 13.749 0.233301 13.2125 0.233301 12.6531V2.34272C0.233301 1.78328 0.455536 1.24676 0.851118 0.851179C1.2467 0.455597 1.78322 0.233362 2.34266 0.233362H6.7918C6.8621 0.242807 6.92992 0.265811 6.99148 0.301119L7.02128 0.318209L7.05529 0.313378C7.06351 0.312212 7.0718 0.311802 7.08006 0.312149C7.13998 0.341943 7.19525 0.380331 7.24412 0.426118L11.6606 4.84262C11.7053 4.89028 11.7429 4.94403 11.7724 5.00224V5.0455V5.06187L11.7776 5.07738C11.7965 5.13349 11.8095 5.19138 11.8166 5.25015V5.25027V5.25051V5.25074V5.25098V5.25121V5.25144V5.25167V5.2519V5.25212V5.25235V5.25258V5.2528V5.25303V5.25325V5.25347V5.25369V5.25391V5.25413V5.25435V5.25457V5.25479V5.255V5.25522V5.25543V5.25565V5.25586V5.25607V5.25628V5.25649V5.2567V5.25691V5.25711V5.25732V5.25752V5.25773V5.25793V5.25813V5.25833V5.25853V5.25873V5.25893V5.25913V5.25933V5.25952V5.25972V5.25991V5.26011V5.2603V5.26049V5.26068V5.26087V5.26106V5.26125V5.26143V5.26162V5.26181V5.26199V5.26218V5.26236V5.26254V5.26272V5.2629V5.26308V5.26326V5.26344V5.26362V5.26379V5.26397V5.26414V5.26432V5.26449V5.26466V5.26483V5.265V5.26517V5.26534V5.26551V5.26568V5.26584V5.26601V5.26617V5.26634V5.2665V5.26666V5.26683V5.26699V5.26715V5.26731V5.26746V5.26762V5.26778V5.26793V5.26809V5.26824V5.2684V5.26855V5.2687V5.26885V5.269V5.26915V5.2693V5.26945V5.2696V5.26975V5.26989V5.27004V5.27018V5.27033V5.27047V5.27061V5.27075V5.27089V5.27103V5.27117V5.27131V5.27145V5.27159V5.27172V5.27186V5.27199V5.27213V5.27226V5.27239V5.27252V5.27266V5.27279V5.27292V5.27305V5.27317V5.2733V5.27343V5.27355V5.27368V5.2738V5.27393V5.27405V5.27418V5.2743V5.27442V5.27454V5.27466V5.27478V5.2749V5.27501V5.27513V5.27525V5.27536V5.27548V5.27559V5.27571V5.27582V5.27593V5.27605V5.27616V5.27627V5.27638V5.27649V5.27659V5.2767V5.27681V5.27692V5.27702V5.27713V5.27723V5.27734V5.27744V5.27754V5.27764V5.27775V5.27785V5.27795V5.27805V5.27815V5.27824V5.27834V5.27844V5.27853V5.27863V5.27873V5.27882V5.27891V5.27901V5.2791V5.27919V5.27928V5.27938V5.27947V5.27956V5.27964V5.27973V5.27982V5.27991V5.28V5.28008V5.28017V5.28025V5.28034V5.28042V5.2805V5.28059V5.28067V5.28075V5.28083V5.28091V5.28099V5.28107V5.28115V5.28123V5.28131V5.28138V5.28146V5.28154V5.28161V5.28169V5.28176V5.28184V5.28191V5.28198V5.28205V5.28213V5.2822V5.28227V5.28234V5.28241V5.28248V5.28255V5.28261V5.28268V5.28275V5.28281V5.28288V5.28295V5.28301V5.28307V5.28314V5.2832V5.28327V5.28333V5.28339V5.28345V5.28351V5.28357V5.28363V5.28369V5.28375V5.28381V5.28387V5.28393V5.28398V5.28404V5.2841V5.28415V5.28421V5.28426V5.28432V5.28437V5.28442V5.28448V5.28453V5.28458V5.28463V5.28468V5.28473V5.28478V5.28483V5.28488V5.28493V5.28498V5.28503V5.28508V5.28512V5.28517V5.28522V5.28526V5.28531V5.28535V5.2854V5.28544V5.28549V5.28553V5.28557V5.28561V5.28566V5.2857V5.28574V5.28578V5.28582V5.28586V5.2859V5.28594V5.28598V5.28602V5.28606V5.28609V5.28613V5.28617V5.2862V5.28624V5.28628V5.28631V5.28635V5.28638V5.28642V5.28645V5.28648V5.28652V5.28655V5.28658V5.28661V5.28665V5.28668V5.28671V5.28674V5.28677V5.2868V5.28683V5.28686V5.28689V5.28692V5.28694V5.28697V5.287V5.28703V5.28706V5.28708V5.28711V5.28713V5.28716V5.28719V5.28721V5.28724V5.28726V5.28728V5.28731V5.28733V5.28735V5.28738V5.2874V5.28742V5.28745V5.28747V5.28749V5.28751V5.28753V5.28755V5.28757V5.28759V5.28761V5.28763V5.28765V5.28767V5.28769V5.28771V5.28772V5.28774V5.28776V5.28778V5.28779V5.28781V5.28783V5.28784V5.28786V5.28788V5.28789V5.28791V5.28792V5.28794V5.28795V5.28797V5.28798V5.28799V5.28801V5.28802V5.28803V5.28805V5.28806V5.28807V5.28808V5.2881V5.28811V5.28812V5.28813V5.28814V5.28815V5.28816V5.28817V5.28818V5.2882V5.2882V5.28821V5.28822V5.28823V5.28824V5.28825V5.28826V5.28827V5.28828V5.28829V5.28829V5.2883V5.28831V5.28832V5.28832V5.28833V5.28834V5.28835V5.28837V5.28838V5.28839V5.2884V5.28841V5.28842V5.28843V5.28844V5.28845V5.28846V5.28846V5.28847V5.28848V5.28849V5.2885V5.28851V5.28851V5.28852V5.28853V6.76144C11.8166 6.93024 11.7495 7.09212 11.6301 7.21148C11.5108 7.33084 11.3489 7.39789 11.1801 7.39789C11.0113 7.39789 10.8494 7.33084 10.7301 7.21148C10.6107 7.09212 10.5436 6.93024 10.5436 6.76144V6.02499V5.92499H10.4436H8.23429C7.67485 5.92499 7.13832 5.70275 6.74274 5.30717C6.34716 4.91159 6.12493 4.37506 6.12493 3.81563V1.60627ZM7.56854 2.57396L7.39783 2.40325V2.64467V3.81563C7.39783 4.03747 7.48596 4.25022 7.64282 4.40709C7.79969 4.56395 8.01244 4.65208 8.23429 4.65208H9.40525H9.64667L9.47596 4.48137L7.56854 2.57396ZM13.7004 12.6991L13.6622 12.7657L13.7167 12.8198L14.5784 13.6741C14.5784 13.6741 14.5784 13.6741 14.5784 13.6741C14.638 13.7333 14.6854 13.8037 14.7177 13.8812C14.75 13.9588 14.7666 14.042 14.7666 14.126C14.7666 14.21 14.75 14.2932 14.7177 14.3707C14.6854 14.4483 14.638 14.5187 14.5784 14.5779L14.5778 14.5784C14.5186 14.6381 14.4482 14.6854 14.3707 14.7177C14.2931 14.7501 14.2099 14.7667 14.1259 14.7667C14.0419 14.7667 13.9587 14.7501 13.8811 14.7177C13.8036 14.6854 13.7332 14.6381 13.674 14.5784C13.674 14.5784 13.674 14.5784 13.674 14.5784L12.8198 13.7168L12.7666 13.6632L12.7005 13.6996C12.3267 13.9056 11.9055 14.0103 11.4788 14.0034C11.0521 13.9964 10.6346 13.878 10.2677 13.6599C9.90088 13.4417 9.59742 13.1315 9.38745 12.76C9.17748 12.3884 9.0683 11.9684 9.07077 11.5416L9.07072 11.5391C9.06137 11.043 9.20165 10.5556 9.47329 10.1403C9.74494 9.72505 10.1353 9.40123 10.5937 9.21103C11.052 9.02083 11.5569 8.97307 12.0428 9.07397C12.5286 9.17487 12.9728 9.41975 13.3175 9.77672L13.3175 9.77672L13.3184 9.7776C13.6927 10.1558 13.9328 10.6463 14.0018 11.174C14.0708 11.7016 13.9649 12.2374 13.7004 12.6991ZM3.36553 7.78431C3.48488 7.66495 3.64677 7.59789 3.81557 7.59789H8.23429C8.40308 7.59789 8.56497 7.66495 8.68433 7.78431C8.80368 7.90366 8.87074 8.06555 8.87074 8.23435C8.87074 8.40314 8.80368 8.56503 8.68433 8.68439C8.56497 8.80375 8.40308 8.8708 8.23429 8.8708H3.81557C3.64677 8.8708 3.48488 8.80375 3.36553 8.68439C3.24617 8.56503 3.17911 8.40314 3.17911 8.23435C3.17911 8.06555 3.24617 7.90366 3.36553 7.78431Z" fill="#029AAD" stroke="white" stroke-width="0.2"/>
</svg>
