<svg width="110" height="22" viewBox="0 0 110 22" fill="none" xmlns="http://www.w3.org/2000/svg">
<path d="M67.9145 4.03957L63.519 7.31351L64.4338 0.765625H68.3719L67.9145 4.03957Z" fill="#FF7A01"/>
<path d="M65.5187 21.2365L67.6354 6.0332L63.2233 9.44453L61.5806 21.2365H65.5187Z" fill="#029AAD"/>
<path d="M16.3994 21.2374H2.8032C0.680795 21.2374 -0.264668 20.5417 0.0644315 18.1914L2.08922 3.64581C2.17581 2.83071 2.53437 2.07389 3.10162 1.50897C3.65942 0.982805 4.52401 0.716797 5.71768 0.716797H19.0016L17.3281 3.79489H7.4078C6.49302 3.79489 5.96869 4.08721 5.82645 5.084L5.37743 8.32286L5.24356 9.22613H16.0146L14.2715 12.3043H4.81126L4.14749 17.0485H4.16144C4.11934 17.1977 4.11231 17.3554 4.14097 17.5082C4.16962 17.6608 4.2331 17.8041 4.32599 17.9254C4.49146 18.0911 4.93212 18.1739 5.64795 18.1739H18.1315L16.3994 21.2374Z" fill="#029AAD"/>
<path d="M45.0757 11.0059H53.2585C54.2933 11.0059 55.0518 10.7135 55.5315 10.0968C55.9202 9.60566 56.2111 8.66732 56.4045 7.28174C56.5997 5.87278 56.4826 4.92568 56.053 4.43751C55.6905 4.02826 54.9877 3.82072 53.9307 3.82072H47.5411C46.5984 3.82072 46.0099 4.29135 45.8677 5.2823L45.0757 11.0059ZM44.6879 13.7829L43.6449 21.2662H39.7041L42.0803 4.22996C42.4094 1.8622 43.6616 0.739706 45.9403 0.739706H55.855C60.0804 0.739706 61.0454 3.15131 60.4903 7.13267C59.9883 10.6989 58.6441 13.8764 54.7088 13.8764H52.023L52.0035 14.0255L58.9369 21.2662H53.9809L48.0403 14.6101C47.2287 13.6338 46.498 13.7829 44.6936 13.7829H44.6879ZM41.6676 0.722167L31.5017 19.2696C31.1496 19.9666 30.6172 20.5456 29.9655 20.94C29.3139 21.3345 28.5694 21.5286 27.8175 21.5C26.1832 21.5 25.1605 20.7566 24.7496 19.2696L19.7462 0.722167H24.0189L27.9513 17.2935C28.1326 17.9659 28.5733 17.7905 28.8466 17.2935L37.3976 0.722167H41.6676ZM87.1278 21.2515H82.1383L74.6389 13.359C73.1327 11.7805 73.4562 9.76058 75.0292 8.40424L84.0154 0.722167H88.8821L78.6911 9.15257C77.9466 9.76058 77.5504 10.2692 77.4919 10.6785C77.4138 11.2455 77.7318 11.8887 78.4457 12.6136L87.1278 21.2515ZM73.0909 21.2515H69.1473L72.0116 0.722167H75.9524L73.0909 21.2515ZM110 21.2515H105.853L104.425 16.06H94.3597L91.5177 21.2662H87.3677L97.8236 2.821C98.7913 1.12264 99.6754 0.50293 101.578 0.50293C103.312 0.50293 104.163 1.06418 104.69 2.821L110 21.2515ZM103.792 13.318L101.561 4.96075C101.402 4.39366 101.243 4.11012 101.081 4.11012C100.919 4.11012 100.685 4.40242 100.367 4.96075L95.7625 13.318H103.792Z" fill="#029AAD"/>
</svg>
