<svg width="102" height="20" viewBox="0 0 102 20" fill="none" xmlns="http://www.w3.org/2000/svg">
<path d="M62.9751 3.36862L58.8993 6.48669L59.7475 0.250549H63.3992L62.9751 3.36862Z" fill="#FF7A01"/>
<path d="M60.7535 19.7472L62.7163 5.26764L58.6251 8.51655L57.1018 19.7472H60.7535Z" fill="white"/>
<path d="M15.2063 19.7472H2.59889C0.630832 19.7472 -0.245873 19.0846 0.059293 16.8462L1.93684 2.99311C2.01712 2.21682 2.34961 1.49604 2.87561 0.958014C3.39284 0.456896 4.19455 0.203552 5.30142 0.203552H17.6192L16.0675 3.1351H6.86862C6.02037 3.1351 5.53417 3.4135 5.40228 4.36283L4.98591 7.44749L4.86178 8.30776H14.8495L13.2331 11.2393H4.46092L3.84542 15.7577H3.85835C3.81931 15.8998 3.8128 16.05 3.83937 16.1955C3.86594 16.3409 3.9248 16.4773 4.01093 16.5929C4.16437 16.7507 4.57298 16.8295 5.23676 16.8295H16.8124L15.2063 19.7472Z" fill="white"/>
<path d="M41.7974 10.0029H49.3851C50.3446 10.0029 51.048 9.72448 51.4928 9.13706C51.8532 8.66935 52.123 7.77569 52.3023 6.45608C52.4833 5.11419 52.3747 4.21218 51.9764 3.74725C51.6402 3.35749 50.9885 3.15984 50.0084 3.15984H44.0835C43.2093 3.15984 42.6636 3.60805 42.5318 4.55183L41.7974 10.0029ZM41.4378 12.6477L40.4706 19.7747H36.8164L39.0198 3.54959C39.325 1.29455 40.4861 0.225504 42.5991 0.225504H51.7928C55.7108 0.225504 56.6057 2.52229 56.091 6.3141C55.6254 9.71056 54.379 12.7368 50.7299 12.7368H48.2394L48.2213 12.8788L54.6505 19.7747H50.0549L44.5464 13.4355C43.7938 12.5057 43.1162 12.6477 41.443 12.6477H41.4378ZM38.6371 0.208799L29.2105 17.8732C28.884 18.537 28.3903 19.0884 27.7861 19.4641C27.1818 19.8398 26.4915 20.0246 25.7942 19.9974C24.2788 19.9974 23.3305 19.2894 22.9494 17.8732L18.3099 0.208799H22.2719L25.9183 15.9912C26.0864 16.6315 26.4951 16.4645 26.7485 15.9912L34.6776 0.208799H38.6371ZM80.7913 19.7607H76.1646L69.2106 12.244C67.814 10.7406 68.114 8.8169 69.5726 7.52513L77.9052 0.208799H82.418L72.9682 8.23783C72.2777 8.8169 71.9104 9.30132 71.8562 9.69108C71.7837 10.2312 72.0786 10.8437 72.7406 11.5341L80.7913 19.7607ZM67.7752 19.7607H64.1184L66.7744 0.208799H70.4286L67.7752 19.7607ZM102 19.7607H98.1547L96.8306 14.8164H87.4972L84.8619 19.7747H81.0137L90.7092 2.20771C91.6066 0.590206 92.4264 0 94.1901 0C95.7987 0 96.5875 0.534527 97.0762 2.20771L102 19.7607ZM96.2435 12.205L94.1746 4.24558C94.0273 3.70549 93.8798 3.43545 93.7298 3.43545C93.5798 3.43545 93.3626 3.71384 93.0677 4.24558L88.798 12.205H96.2435Z" fill="white"/>
</svg>
