<svg width="15" height="16" viewBox="0 0 15 16" fill="none" xmlns="http://www.w3.org/2000/svg">
<g clip-path="url(#clip0_1492_2492)">
<path d="M0 5.04688C0 4.83301 0.0504609 4.625 0.145031 4.44629L1.91602 1.12607C2.01872 0.933345 2.15795 0.775338 2.3213 0.666109C2.48466 0.556881 2.66708 0.499819 2.85234 0.5H12.1477C12.525 0.5 12.8742 0.734991 13.0828 1.12607L14.8547 4.44629C14.9484 4.625 15 4.83301 15 5.04688C15 5.6416 14.6133 6.125 14.1375 6.125H0.863438C0.386719 6.125 0 5.6416 0 5.04688ZM1.5 7.0625H3V11.75H7.5V7.0625H9V14.0938C9 14.8701 8.49609 15.5 7.875 15.5H2.625C2.00367 15.5 1.5 14.8701 1.5 14.0938V7.0625ZM12 7.0625H13.5V14.5625C13.5 15.0811 13.1648 15.5 12.75 15.5C12.3352 15.5 12 15.0811 12 14.5625V7.0625Z" fill="#029AAD"/>
</g>
<defs>
<clipPath id="clip0_1492_2492">
<rect width="15" height="15" fill="white" transform="translate(0 0.5)"/>
</clipPath>
</defs>
</svg>
