<svg width="15" height="15" viewBox="0 0 15 15" fill="none" xmlns="http://www.w3.org/2000/svg">
<path d="M6.97571 2.0138C5.69265 2.14512 4.5235 2.69838 3.61654 3.6047C1.46306 5.75748 1.46306 9.24499 3.61654 11.3978C4.48911 12.2696 5.55296 12.7928 6.82527 12.9736C7.08102 13.0102 7.92565 13.008 8.19 12.9715C9.43438 12.7992 10.5326 12.2589 11.3901 11.3956C12.0112 10.7713 12.454 10.048 12.7248 9.22346C12.8967 8.70034 12.9762 8.25902 12.9977 7.69499C13.0536 6.16436 12.4776 4.69616 11.388 3.6047C10.5434 2.75651 9.47306 2.22046 8.26522 2.04178C8.00302 2.00303 7.24006 1.98581 6.97571 2.0138ZM8.29746 2.82755C9.81048 3.1031 11.0527 4.0288 11.734 5.38721C12.2713 6.45929 12.3788 7.69929 12.0349 8.85749C11.777 9.72936 11.2375 10.5517 10.5498 11.1222C9.66434 11.8606 8.63058 12.2374 7.50226 12.2374C6.23425 12.2374 5.05864 11.7487 4.16029 10.8488C3.44891 10.1362 3.00833 9.27728 2.8235 8.24395C2.76977 7.9361 2.76977 7.06637 2.8235 6.75853C3.00833 5.72519 3.44891 4.86623 4.16029 4.15366C4.92754 3.38512 5.85599 2.93519 6.97571 2.78665C7.24006 2.7522 8.01592 2.77588 8.29746 2.82755Z" fill="#001529"/>
<path d="M7.37978 4.72635C7.28307 4.75433 7.16486 4.87919 7.13907 4.97607C7.12618 5.02128 7.11543 5.18273 7.11543 5.33773C7.11543 5.64128 7.14337 5.7403 7.24653 5.83718C7.39697 5.97496 7.65702 5.95774 7.78812 5.80274C7.87624 5.6951 7.89343 5.60253 7.88698 5.271C7.87839 5.00405 7.87409 4.96315 7.82896 4.89211C7.73869 4.74787 7.54527 4.67468 7.37978 4.72635Z" fill="#001529"/>
<path d="M7.31747 6.42265C7.2315 6.47647 7.16488 6.56258 7.13479 6.65946C7.11974 6.71112 7.11545 7.27515 7.11974 8.38383L7.12619 10.0307L7.17562 10.1104C7.32607 10.3515 7.67853 10.3515 7.82898 10.1104L7.87841 10.0307L7.88486 8.38383C7.88915 7.25147 7.88486 6.71112 7.86766 6.6573C7.83972 6.56258 7.7559 6.4571 7.67209 6.41404C7.58612 6.36883 7.39914 6.37314 7.31747 6.42265Z" fill="#001529"/>
</svg>
