<svg width="21" height="20" viewBox="0 0 21 20" fill="none" xmlns="http://www.w3.org/2000/svg">
<path d="M6.62514 12.1704L12.4291 6.37384C12.6258 6.21012 12.8765 6.12582 13.1321 6.13749C13.3877 6.14916 13.6297 6.25595 13.8106 6.43691C13.9915 6.61787 14.0983 6.85993 14.11 7.11558C14.1216 7.37123 14.0374 7.62201 13.8737 7.81871L8.06972 13.6238C7.87761 13.8144 7.618 13.9213 7.34743 13.9213C7.07686 13.9213 6.81725 13.8144 6.62514 13.6238C6.52952 13.5285 6.45364 13.4152 6.40187 13.2905C6.3501 13.1658 6.32345 13.0321 6.32345 12.8971C6.32345 12.7621 6.3501 12.6284 6.40187 12.5037C6.45364 12.379 6.52952 12.2657 6.62514 12.1704ZM10.976 13.6238L8.55694 16.0433C7.97587 16.6001 7.19984 16.9071 6.39518 16.8985C5.59052 16.8898 4.82125 16.5663 4.25224 15.9972C3.68322 15.428 3.35974 14.6586 3.35112 13.8538C3.3425 13.049 3.64942 12.2728 4.20612 11.6916L6.62514 9.27212C6.72077 9.1768 6.79664 9.06355 6.84841 8.93884C6.90018 8.81414 6.92683 8.68044 6.92683 8.54541C6.92683 8.41038 6.90018 8.27668 6.84841 8.15198C6.79664 8.02727 6.72077 7.91402 6.62514 7.81871C6.43052 7.62964 6.16989 7.52388 5.89858 7.52388C5.62727 7.52388 5.36664 7.62964 5.17202 7.81871L2.75299 10.2382C1.79064 11.2007 1.25 12.5062 1.25 13.8675C1.25 15.2287 1.79064 16.5342 2.75299 17.4967C3.71534 18.4593 5.02056 19 6.38153 19C7.7425 19 9.04772 18.4593 10.0101 17.4967L12.4205 15.0772C12.5162 14.9819 12.592 14.8686 12.6438 14.7439C12.6956 14.6192 12.7222 14.4855 12.7222 14.3505C12.7222 14.2155 12.6956 14.0818 12.6438 13.9571C12.592 13.8324 12.5162 13.7191 12.4205 13.6238C12.326 13.5284 12.2135 13.4527 12.0895 13.401C11.9655 13.3494 11.8326 13.3228 11.6983 13.3228C11.564 13.3228 11.431 13.3494 11.307 13.401C11.183 13.4527 11.0705 13.5284 10.976 13.6238ZM17.7458 2.50093C16.7827 1.53979 15.4778 1 14.1173 1C12.7568 1 11.4518 1.53979 10.4887 2.50093L8.06972 4.92043C7.88069 5.11509 7.77496 5.37577 7.77496 5.64714C7.77496 5.9185 7.88069 6.17918 8.06972 6.37384C8.16501 6.46949 8.27825 6.54538 8.40293 6.59716C8.52761 6.64894 8.66128 6.67559 8.79628 6.67559C8.93128 6.67559 9.06496 6.64894 9.18964 6.59716C9.31432 6.54538 9.42755 6.46949 9.52285 6.37384L11.9419 3.95434C12.2253 3.65847 12.5649 3.42218 12.9408 3.25932C13.3167 3.09646 13.7213 3.01031 14.1309 3.00592C14.5406 3.00153 14.947 3.07899 15.3263 3.23376C15.7056 3.38852 16.0502 3.61748 16.3398 3.90721C16.6295 4.19694 16.8584 4.54159 17.0131 4.92097C17.1679 5.30035 17.2453 5.70682 17.2409 6.11653C17.2366 6.52624 17.1504 6.93095 16.9876 7.30692C16.8248 7.6829 16.5885 8.02257 16.2927 8.30603L13.8737 10.7255C13.7338 10.8705 13.6393 11.0533 13.6018 11.2513C13.5643 11.4493 13.5854 11.6539 13.6626 11.8401C13.7397 12.0262 13.8696 12.1858 14.0362 12.2991C14.2027 12.4125 14.3988 12.4747 14.6002 12.4782C14.7359 12.4788 14.8702 12.4519 14.9951 12.399C15.1201 12.3461 15.2329 12.2683 15.3268 12.1704L17.7458 9.75944C18.2227 9.28303 18.601 8.71728 18.8591 8.09455C19.1172 7.47181 19.25 6.8043 19.25 6.13018C19.25 5.45606 19.1172 4.78855 18.8591 4.16582C18.601 3.54309 18.2227 2.97734 17.7458 2.50093Z" fill="#C4C4C4"/>
</svg>
