<svg width="14" height="18" viewBox="0 0 14 18" fill="none" xmlns="http://www.w3.org/2000/svg">
<path fill-rule="evenodd" clip-rule="evenodd" d="M6.712 17.9085L7 17.5L6.712 17.9085ZM7.288 17.9085L7.29 17.9075L7.295 17.904L7.31 17.8925L7.369 17.85C7.419 17.813 7.492 17.759 7.584 17.688C7.768 17.547 8.029 17.3395 8.3405 17.073C9.15821 16.3741 9.92282 15.6153 10.628 14.803C12.282 12.89 14 10.1595 14 7.038C14 5.173 13.263 3.383 11.951 2.063C11.3025 1.4097 10.5312 0.891092 9.68154 0.537038C8.83184 0.182983 7.92051 0.000469168 7 0C6.07953 0.000403672 5.16822 0.182839 4.31852 0.536807C3.46883 0.890775 2.69753 1.40929 2.049 2.0625C0.735712 3.38552 -0.000881509 5.17434 7.91709e-07 7.0385C7.91709e-07 10.1595 1.718 12.89 3.372 14.803C4.07719 15.6153 4.84179 16.3741 5.6595 17.073C5.9715 17.3395 6.232 17.547 6.416 17.688C6.50625 17.7576 6.59742 17.8259 6.6895 17.893L6.7055 17.904L6.71 17.9075L6.712 17.9085C6.8845 18.03 7.1155 18.03 7.288 17.9085ZM7 17.5L7.288 17.9085L7 17.5ZM9.5 7C9.5 7.66304 9.23661 8.29893 8.76777 8.76777C8.29893 9.23661 7.66304 9.5 7 9.5C6.33696 9.5 5.70108 9.23661 5.23223 8.76777C4.76339 8.29893 4.5 7.66304 4.5 7C4.5 6.33696 4.76339 5.70107 5.23223 5.23223C5.70108 4.76339 6.33696 4.5 7 4.5C7.66304 4.5 8.29893 4.76339 8.76777 5.23223C9.23661 5.70107 9.5 6.33696 9.5 7Z" fill="#029AAD"/>
</svg>
