<svg width="21" height="20" viewBox="0 0 21 20" fill="none" xmlns="http://www.w3.org/2000/svg">
<path d="M10.4196 0.534607L10.4198 0.534792L19.6654 9.39738C19.7777 9.51124 19.8333 9.65381 19.8333 9.7915C19.8333 10.0896 19.5896 10.3332 19.2916 10.3332H17.8333H17.3333V10.8332V18.75C17.3333 19.1639 16.9972 19.5 16.5833 19.5H13.0416C12.9727 19.5 12.9166 19.4439 12.9166 19.375V13.9583C12.9166 13.5681 12.5988 13.2499 12.2083 13.2499H8.45831C8.06544 13.2499 7.75003 13.5696 7.75003 13.9583V19.375C7.75003 19.4439 7.69388 19.5 7.62503 19.5H4.08331C3.66946 19.5 3.33331 19.1639 3.33331 18.75V10.8332V10.3332H2.83331H1.37503C1.07699 10.3332 0.833313 10.0896 0.833313 9.7915C0.833313 9.65075 0.891132 9.50914 0.992137 9.40645L10.2469 0.534784L10.2471 0.534607C10.2952 0.488464 10.3715 0.488464 10.4196 0.534607Z" fill="#C4C4C4" stroke="#C4C4C4"/>
</svg>
