<svg width="256" height="240" viewBox="0 0 256 240" fill="none" xmlns="http://www.w3.org/2000/svg">
<g clip-path="url(#clip0_3064_13468)">
<path d="M140.187 189.836H81.5879V234.986H140.187V189.836Z" fill="#EBEBEB"/>
<path d="M125.508 234.672C125.429 234.672 125.361 224.605 125.361 212.189C125.361 199.773 125.429 189.707 125.508 189.707C125.586 189.707 125.654 199.773 125.654 212.189C125.654 224.605 125.586 234.672 125.508 234.672Z" fill="#E0E0E0"/>
<path d="M135.218 224.712H130.729V229.787H135.218V224.712Z" fill="#FAFAFA"/>
<path d="M106.125 189.954H99.4688V199.588H106.125V189.954Z" fill="#E0E0E0"/>
<path d="M106.125 225.218H99.4688V234.851H106.125V225.218Z" fill="#E0E0E0"/>
<path d="M246.52 178.516H172.628V235.447H246.52V178.516Z" fill="#EBEBEB"/>
<path d="M228.003 235.043C227.924 235.043 227.857 222.357 227.857 206.703C227.857 191.05 227.924 178.364 228.003 178.364C228.082 178.364 228.149 191.05 228.149 206.703C228.149 222.357 228.088 235.043 228.003 235.043Z" fill="#E0E0E0"/>
<path d="M240.252 222.486H234.586V228.882H240.252V222.486Z" fill="#FAFAFA"/>
<path d="M203.562 178.662H195.167V190.808H203.562V178.662Z" fill="#E0E0E0"/>
<path d="M203.562 223.127H195.167V235.273H203.562V223.127Z" fill="#E0E0E0"/>
<path d="M33.4545 180.191C36.4477 178.651 39.9698 178.449 43.2894 179C45.0729 179.292 46.9296 179.826 48.1449 181.163C49.3602 182.501 49.5853 184.856 48.1956 186.008C47.3629 186.694 46.2095 186.795 45.1292 186.784C42.5298 186.75 39.6491 186.295 37.573 187.858C36.3858 188.751 35.5981 190.229 34.1972 190.668C32.7962 191.106 31.2489 190.28 30.5175 189.032C29.8408 187.731 29.6917 186.219 30.1012 184.811C30.2668 183.835 30.6555 182.911 31.2371 182.11C31.8187 181.308 32.5775 180.652 33.4545 180.191Z" fill="#EBEBEB"/>
<path d="M26.6016 166.977C28.4301 169.585 31.986 168.725 33.6345 167.129C35.283 165.533 35.9807 163.228 36.6109 161.03C38.0625 156 39.5197 150.722 38.4451 145.602C38.1863 144.049 37.5029 142.598 36.4702 141.409C35.9474 140.825 35.2809 140.388 34.5368 140.14C33.7927 139.893 32.9968 139.844 32.2279 139.998C30.4331 140.47 29.3191 142.246 28.5145 143.893C26.1424 148.816 24.9006 154.207 24.8799 159.67C24.8799 162.216 25.1668 164.881 26.6016 166.977" fill="#EBEBEB"/>
<path d="M21.5827 170.72C23.5688 168.365 23.9458 164.937 23.0624 161.986C22.1791 159.035 20.1817 156.528 17.8806 154.477C15.174 152.072 12.0247 150.216 8.60829 149.014C7.28419 148.479 5.85997 148.238 4.43352 148.305C3.72193 148.346 3.03107 148.56 2.42111 148.928C1.81115 149.296 1.30059 149.808 0.933913 150.419C-0.0450756 152.279 0.894529 154.533 1.90728 156.377C3.69073 159.62 5.72622 162.719 7.99501 165.645C9.82358 167.994 11.9335 170.316 14.696 171.378C17.4586 172.44 20.373 172.317 21.8471 170.389" fill="#EBEBEB"/>
<path d="M26.4779 206.333C26.5756 205.946 26.6322 205.551 26.6467 205.152C26.7311 204.287 26.8323 203.202 26.9617 201.915C27.123 200.322 27.3653 198.739 27.6875 197.171C28.1103 195.254 28.688 193.374 29.4148 191.55C30.1277 189.739 31.0918 188.036 32.2787 186.492C33.249 185.236 34.4842 184.21 35.8964 183.485C36.8569 183.012 37.8861 182.693 38.9459 182.541C39.3449 182.525 39.741 182.467 40.1275 182.366C39.7292 182.322 39.3273 182.322 38.929 182.366C37.8284 182.449 36.7517 182.729 35.7501 183.192C34.2588 183.895 32.9511 184.934 31.9298 186.228C30.6876 187.792 29.6863 189.533 28.9591 191.393C28.2331 193.239 27.6684 195.144 27.2712 197.087C26.9651 198.675 26.7528 200.279 26.6354 201.892C26.5341 203.269 26.4948 204.382 26.4779 205.152C26.4364 205.545 26.4364 205.94 26.4779 206.333V206.333Z" fill="#E0E0E0"/>
<path d="M26.7029 203.848C26.7363 203.663 26.7476 203.474 26.7366 203.286C26.7366 202.87 26.7366 202.348 26.7366 201.712C26.7366 200.347 26.7366 198.368 26.8041 195.929C26.9279 191.05 27.3668 185.812 28.1601 178.398C28.9309 171.434 29.9605 163.335 31.0521 158.068C31.2827 156.871 31.519 155.792 31.7441 154.848C31.9692 153.904 32.1323 153.083 32.3067 152.425C32.4812 151.768 32.5768 151.301 32.6781 150.897C32.7331 150.714 32.7653 150.525 32.7737 150.334C32.689 150.498 32.6247 150.672 32.5824 150.852C32.4587 151.251 32.3067 151.745 32.1211 152.358C31.9354 152.971 31.7103 153.825 31.474 154.764C31.2377 155.702 30.9677 156.781 30.7145 157.979C29.3629 164.207 28.3468 170.504 27.6706 176.841C26.8604 184.26 26.4947 191.016 26.4609 195.906C26.4609 198.351 26.4609 200.335 26.5453 201.701C26.5847 202.336 26.6185 202.859 26.641 203.269C26.6382 203.464 26.659 203.658 26.7029 203.848V203.848Z" fill="#E0E0E0"/>
<path d="M26.7367 190.82C26.7796 190.272 26.7796 189.721 26.7367 189.173C26.6748 188.116 26.5285 186.593 26.2303 184.721C25.8623 182.533 25.3701 180.368 24.7562 178.235C24.0466 175.611 23.1382 173.044 22.0387 170.557C20.1562 165.975 17.4546 161.774 14.0661 158.158C13.4781 157.537 12.8504 156.955 12.1869 156.416C11.8999 156.169 11.6242 155.927 11.3879 155.736L10.6903 155.236C10.2524 154.902 9.78754 154.605 9.30054 154.348C9.22177 154.454 11.2641 155.657 13.841 158.394C17.1188 162.044 19.7485 166.226 21.6167 170.76C22.6972 173.23 23.6089 175.771 24.3455 178.364C24.9642 180.477 25.4768 182.619 25.8815 184.783C26.219 186.632 26.4441 188.156 26.5341 189.19C26.5582 189.738 26.6259 190.283 26.7367 190.82V190.82Z" fill="#E0E0E0"/>
<path d="M13.2559 211.818L14.5612 229.709H37.5674L38.8727 211.818H13.2559Z" fill="#EBEBEB"/>
<path d="M41.6125 204.77H11.0332V211.818H41.6125V204.77Z" fill="#EBEBEB"/>
<path d="M11.0332 229.023V230.973H12.4736H41.1118V229.023H11.0332Z" fill="#E0E0E0"/>
<path d="M13.8802 234.2L12.4736 230.76H40.0147L38.3718 234.2H13.8802Z" fill="#E0E0E0"/>
<path d="M38.4451 217.664C38.4164 217.724 38.3805 217.781 38.3382 217.832C38.2482 217.95 38.13 218.102 37.995 218.288L36.6559 219.974L36.594 220.053L36.5378 219.974L33.2463 215.427H33.432L30.1912 220.008L30.0899 220.154L29.9774 220.019L26.1346 215.449H26.354L26.1458 215.719L22.7081 220.019L22.59 220.165L22.4887 220.013L19.2423 215.432H19.4336L15.4389 219.974L15.3713 220.058L15.3151 219.963L14.066 217.894C13.931 217.669 13.8297 217.484 13.7453 217.332C13.7029 217.269 13.6689 217.201 13.644 217.13C13.6967 217.184 13.7421 217.244 13.7791 217.31L14.1335 217.844L15.4445 219.906H15.3207L19.2592 215.309L19.3548 215.191L19.4448 215.314L22.7194 219.878H22.5056L25.932 215.567C26.0052 215.477 26.0783 215.387 26.1402 215.303L26.2527 215.163L26.3653 215.297L30.1968 219.878H29.983L33.2576 215.32L33.3532 215.185L33.4433 215.32C34.7429 217.169 35.8457 218.737 36.6672 219.918H36.549L37.9444 218.231C38.0963 218.057 38.22 217.917 38.3157 217.799C38.3555 217.751 38.3987 217.706 38.4451 217.664V217.664Z" fill="#F5F5F5"/>
<path d="M39.1931 211.7C39.1931 211.779 33.426 211.846 26.3199 211.846C19.2138 211.846 13.4468 211.779 13.4468 211.7C13.4468 211.622 19.2082 211.56 26.3199 211.56C33.4317 211.56 39.1931 211.622 39.1931 211.7Z" fill="#F5F5F5"/>
<path d="M200.536 8.88125L195.821 8.90674L195.948 32.3443L200.663 32.3188L200.536 8.88125Z" fill="#E0E0E0"/>
<path d="M167.184 8.94365L154.975 9.00964L155.045 21.9481L167.254 21.8821L167.184 8.94365Z" fill="#EBEBEB"/>
<path d="M179.336 8.87798L167.127 8.94397L167.198 21.8824L179.407 21.8164L179.336 8.87798Z" fill="#F5F5F5"/>
<path d="M154.99 12.5902C163.107 12.6577 171.228 12.6202 179.352 12.4778C179.386 12.4778 179.419 12.4642 179.444 12.4399C179.468 12.4157 179.481 12.3828 179.481 12.3485C179.481 12.3142 179.468 12.2814 179.444 12.2571C179.419 12.2329 179.386 12.2192 179.352 12.2192C171.239 12.1743 163.103 12.2192 154.99 12.371C154.965 12.3767 154.943 12.3906 154.927 12.4105C154.911 12.4304 154.902 12.4551 154.902 12.4806C154.902 12.5061 154.911 12.5308 154.927 12.5507C154.943 12.5706 154.965 12.5845 154.99 12.5902V12.5902Z" fill="#E0E0E0"/>
<path d="M169.549 21.667L147.364 21.7869L147.421 32.331L169.606 32.2111L169.549 21.667Z" fill="#EBEBEB"/>
<path d="M191.625 21.5477L169.441 21.6676L169.498 32.2117L191.682 32.0918L191.625 21.5477Z" fill="#F5F5F5"/>
<path d="M147.377 24.7307C162.113 24.8937 176.899 24.7307 191.64 24.5115C191.674 24.5115 191.707 24.4979 191.731 24.4737C191.756 24.4494 191.769 24.4165 191.769 24.3822C191.769 24.348 191.756 24.3151 191.731 24.2908C191.707 24.2666 191.674 24.253 191.64 24.253C176.904 24.1743 162.113 24.1799 147.377 24.5059C147.347 24.5059 147.319 24.5177 147.298 24.5388C147.277 24.5599 147.265 24.5885 147.265 24.6183C147.265 24.6481 147.277 24.6767 147.298 24.6978C147.319 24.7189 147.347 24.7307 147.377 24.7307V24.7307Z" fill="#E0E0E0"/>
<path d="M225.027 32.3411H139.078V36.1181H225.027V32.3411Z" fill="#E0E0E0"/>
<path d="M156.638 34.1565H153.15V47.0446H156.638V34.1565Z" fill="#E0E0E0"/>
<path d="M208.721 34.1565H205.233V47.0446H208.721V34.1565Z" fill="#E0E0E0"/>
<path d="M205.136 0.138823L200.421 0.164307L200.596 32.398L205.311 32.3725L205.136 0.138823Z" fill="#EBEBEB"/>
<path d="M212.5 6.14119L205.174 6.18079L205.316 32.305L212.641 32.2654L212.5 6.14119Z" fill="#F5F5F5"/>
<path d="M212.452 11.185C210.017 11.3569 207.573 11.3569 205.138 11.185C207.573 11.0207 210.017 11.0207 212.452 11.185V11.185Z" fill="#E0E0E0"/>
<path d="M212.452 10.1172C211.235 10.2402 210.012 10.2815 208.789 10.2408C207.567 10.2813 206.343 10.2399 205.126 10.1172C207.562 9.94532 210.006 9.94532 212.441 10.1172H212.452Z" fill="#E0E0E0"/>
<path d="M212.452 28.3447C210.017 28.5165 207.573 28.5165 205.138 28.3447C207.573 28.1803 210.017 28.1803 212.452 28.3447V28.3447Z" fill="#E0E0E0"/>
<path d="M212.452 27.2487C210.017 27.4131 207.573 27.4131 205.138 27.2487C207.573 27.0769 210.017 27.0769 212.452 27.2487V27.2487Z" fill="#E0E0E0"/>
<path d="M208.907 24.8544C208.839 24.8544 208.783 22.2183 208.783 18.9696C208.783 15.7209 208.839 13.0792 208.907 13.0792C208.975 13.0792 209.036 15.7153 209.036 18.9696C209.036 22.224 208.98 24.8544 208.907 24.8544Z" fill="#E0E0E0"/>
<path d="M220.509 12.5677H212.536V32.2848H220.509V12.5677Z" fill="#EBEBEB"/>
<path d="M202.707 7.00894C203.456 7.00894 204.063 6.40248 204.063 5.65437C204.063 4.90626 203.456 4.2998 202.707 4.2998C201.958 4.2998 201.351 4.90626 201.351 5.65437C201.351 6.40248 201.958 7.00894 202.707 7.00894Z" fill="#E0E0E0"/>
<path d="M203.129 9.38086H202.291V28.5584H203.129V9.38086Z" fill="#E0E0E0"/>
<path d="M249.057 235.138C249.057 235.223 194.976 235.284 128.287 235.284C61.5973 235.284 7.50537 235.223 7.50537 235.138C7.50537 235.054 61.5748 234.992 128.287 234.992C194.999 234.992 249.057 235.06 249.057 235.138Z" fill="#263238"/>
<path d="M71.5734 28.8618C74.2266 32.1055 75.6634 36.1727 75.6356 40.3616C75.6075 42.7335 75.1686 45.3471 76.5527 47.2749C77.5992 48.7363 79.5122 49.4726 80.3617 51.0576C81.3857 52.963 80.5137 55.3742 81.1438 57.4426C82.0328 60.3766 85.4761 61.6075 87.5185 63.8951C88.3891 64.9066 88.9982 66.116 89.2925 67.4173C89.5867 68.7185 89.5572 70.072 89.2064 71.3592C88.8343 72.6411 88.1614 73.8157 87.2435 74.7855C86.3256 75.7552 85.1892 76.4921 83.9289 76.9349C82.5831 77.4649 81.082 77.4406 79.7541 76.8674C78.3756 76.1817 77.5035 74.771 76.8284 73.3939C75.4724 70.6848 63.5614 56.0431 62.8862 53.0866" fill="#263238"/>
<path d="M62.9088 25.4108C58.0364 24.6239 53.344 27.8557 51.3016 32.341C49.2592 36.8262 49.1917 41.896 49.051 46.8422C48.9104 51.7883 48.5503 56.9143 46.0353 61.1522C44.4374 63.8445 41.9618 66.2108 41.5736 69.3077C41.2247 72.0843 42.6651 74.8834 42.1869 77.6431C41.7705 80.0487 39.9363 82.1396 40.0095 84.5733C40.0995 87.5073 43.1208 89.7162 46.0522 89.7948C48.9835 89.8735 51.7292 88.3391 54.0304 86.518C57.7796 83.5443 60.7798 79.7349 62.7906 75.3948" fill="#263238"/>
<path d="M54.8909 37.0117C54.7378 35.7873 54.8326 34.5447 55.1695 33.3576C55.5063 32.1705 56.0785 31.063 56.8521 30.1011C57.6256 29.1391 58.5847 28.3421 59.6724 27.7575C60.7601 27.1729 61.9544 26.8126 63.1842 26.6979C68.096 26.2258 72.4677 29.8848 73.2047 34.7635C73.8518 39.0407 74.4032 43.3574 74.3863 44.9255C74.3244 49.6525 71.5731 51.4904 70.4478 52.0468C70.0431 52.192 69.6245 52.2955 69.1988 52.356V52.356V52.3897L70.2453 57.8192C70.7235 61.377 68.7374 64.5639 65.1815 65.0642C61.6257 65.5644 58.8294 62.8496 58.2836 59.2918L54.8909 37.0117Z" fill="#FFBE9D"/>
<path d="M72.2371 36.8319C72.1583 36.9443 71.5338 36.6127 70.7349 36.7307C69.9359 36.8488 69.4014 37.3321 69.3001 37.2478C69.1989 37.1635 69.3001 37.023 69.5477 36.7982C69.8554 36.4988 70.2486 36.3023 70.673 36.2361C71.0893 36.172 71.5153 36.2429 71.8883 36.4385C72.1696 36.6183 72.2765 36.7869 72.2371 36.8319Z" fill="#263238"/>
<path d="M65.1141 38.563C65.0353 38.6754 64.4108 38.3382 63.6062 38.4562C62.8016 38.5743 62.2784 39.0632 62.1771 38.9789C62.0758 38.8946 62.1771 38.7485 62.4247 38.5293C62.7323 38.2299 63.1256 38.0335 63.5499 37.9672C63.9668 37.9079 64.3918 37.9807 64.7652 38.1752C65.0409 38.3494 65.1534 38.5124 65.1141 38.563Z" fill="#263238"/>
<path d="M68.0344 42.8516C68.4369 42.6582 68.8622 42.5165 69.3004 42.43C69.5029 42.3794 69.6886 42.312 69.7055 42.1658C69.6872 41.9605 69.609 41.765 69.4804 41.6038L68.6421 40.1087C67.4774 38.0178 66.6053 36.2867 66.6897 36.2361C66.7741 36.1855 67.815 37.8548 68.9403 39.9457C69.2272 40.4628 69.5029 40.9574 69.7505 41.4239C69.914 41.6525 69.9935 41.9305 69.9755 42.2108C69.957 42.2875 69.9209 42.3589 69.8702 42.4193C69.8194 42.4798 69.7553 42.5277 69.683 42.5593C69.5733 42.6072 69.4579 42.6412 69.3398 42.6605C68.9148 42.7808 68.476 42.845 68.0344 42.8516Z" fill="#263238"/>
<path d="M69.1538 52.3616C69.1538 52.3616 66.0987 53.0642 61.8901 51.3049C61.8901 51.3049 63.7075 55.2113 69.4407 53.823L69.1538 52.3616Z" fill="#EB996E"/>
<path d="M64.7033 36.4665C64.6583 36.6969 63.8425 36.7082 62.9198 36.9611C61.997 37.214 61.2712 37.5738 61.1193 37.3995C61.0518 37.3152 61.1531 37.0904 61.4288 36.8375C61.8 36.5203 62.2386 36.2917 62.7114 36.169C63.1842 36.0463 63.6787 36.0327 64.1576 36.1293C64.5289 36.2136 64.7033 36.3597 64.7033 36.4665Z" fill="#263238"/>
<path d="M71.5789 35.0614C71.4663 35.2637 70.8868 35.1569 70.2229 35.2412C69.559 35.3255 69.0133 35.5447 68.8557 35.3705C68.7882 35.2862 68.8557 35.0951 69.0695 34.8871C69.3646 34.6258 69.7348 34.4645 70.1273 34.4262C70.5148 34.3796 70.9074 34.4521 71.2525 34.6342C71.5226 34.786 71.6295 34.9602 71.5789 35.0614Z" fill="#263238"/>
<path d="M63.3757 39.5973C63.3881 39.6843 63.4176 39.7679 63.4626 39.8434C63.5076 39.9189 63.5672 39.9847 63.6379 40.037C63.7085 40.0893 63.7889 40.127 63.8743 40.148C63.9597 40.169 64.0484 40.1729 64.1353 40.1594C64.2198 40.1496 64.3015 40.1232 64.3757 40.0817C64.4498 40.0401 64.515 39.9842 64.5674 39.9173C64.6197 39.8503 64.6582 39.7737 64.6806 39.6917C64.7031 39.6098 64.7089 39.5242 64.6979 39.4399C64.6715 39.2649 64.5768 39.1075 64.4344 39.0021C64.292 38.8968 64.1137 38.8521 63.9384 38.8779C63.8536 38.8868 63.7715 38.9128 63.6969 38.9541C63.6224 38.9954 63.5569 39.0513 63.5044 39.1184C63.4519 39.1856 63.4135 39.2625 63.3914 39.3448C63.3693 39.4271 63.3639 39.5129 63.3757 39.5973V39.5973Z" fill="#263238"/>
<path d="M70.4705 38.0629C70.4969 38.2379 70.5916 38.3953 70.734 38.5007C70.8764 38.606 71.0547 38.6507 71.23 38.6249C71.3145 38.6152 71.3962 38.5888 71.4704 38.5472C71.5446 38.5057 71.6097 38.4498 71.6621 38.3829C71.7145 38.3159 71.753 38.2392 71.7754 38.1573C71.7978 38.0753 71.8037 37.9897 71.7927 37.9055C71.7663 37.7305 71.6715 37.573 71.5291 37.4677C71.3868 37.3623 71.2084 37.3177 71.0331 37.3434C70.9483 37.3524 70.8662 37.3783 70.7916 37.4197C70.7171 37.461 70.6516 37.5169 70.5991 37.584C70.5466 37.6511 70.5082 37.7281 70.4861 37.8104C70.464 37.8926 70.4587 37.9785 70.4705 38.0629Z" fill="#263238"/>
<path d="M69.2946 44.4028C69.0737 44.3342 68.8358 44.3449 68.622 44.4332C68.4082 44.5215 68.2322 44.6818 68.1243 44.8862C68.0213 45.0739 67.9795 45.2891 68.0047 45.5017C68.0299 45.7143 68.1209 45.9137 68.265 46.0722C68.4183 46.2226 68.6202 46.3137 68.8346 46.3292C69.049 46.3446 69.2619 46.2834 69.4353 46.1565C69.6523 45.9591 69.7835 45.6848 69.801 45.3921C69.8392 45.1237 69.7749 44.8508 69.6209 44.6277C69.5419 44.5185 69.4291 44.4385 69.2999 44.3999C69.1707 44.3613 69.0324 44.3663 68.9064 44.4141" fill="#EB996E"/>
<path d="M72.5802 30.9134C72.1385 29.1326 71.0365 27.5858 69.4969 26.5855C68.2367 25.6762 66.7398 25.151 65.1871 25.0736C63.6248 25.0064 62.0995 25.5601 60.9449 26.6136C60.1255 27.4249 59.6569 28.5246 59.6395 29.6769L59.7296 28.89C59.4931 29.5303 59.4931 30.2338 59.7296 30.8741V30.8741C59.859 31.2169 60.0165 31.5654 60.1515 31.9082C60.5543 32.899 61.3015 33.7113 62.2558 34.1958C62.688 34.4274 63.172 34.5454 63.6624 34.5387C63.9079 34.5338 64.1494 34.4754 64.3699 34.3676C64.5905 34.2599 64.7849 34.1053 64.9396 33.9148C65.2889 33.3055 65.3973 32.5877 65.2434 31.9026C65.6126 32.5796 66.1394 33.158 66.7794 33.5888C67.1062 33.7974 67.4949 33.8873 67.8801 33.8433C68.2654 33.7992 68.6237 33.624 68.8949 33.3471C69.3563 32.7851 69.1762 31.897 68.8949 31.2001C69.3302 31.8574 69.9399 32.3809 70.656 32.712C70.8444 32.82 71.0532 32.8877 71.2691 32.9109C71.4851 32.9342 71.7036 32.9124 71.9107 32.8469C72.0762 32.7649 72.221 32.6464 72.3341 32.5003C72.4471 32.3543 72.5255 32.1845 72.5633 32.0038C72.6468 31.6457 72.6526 31.2739 72.5802 30.9134Z" fill="#263238"/>
<path d="M68.5122 32.4085C68.4616 32.4085 68.4728 31.7397 68.2534 30.7223C68.0003 29.3705 67.32 28.1353 66.3123 27.1982C65.7585 26.6951 65.0903 26.3344 64.3656 26.1472C63.772 26.0016 63.1539 25.9863 62.5539 26.1022C62.0008 26.2313 61.4725 26.4496 60.9897 26.7486C60.9897 26.7486 61.0854 26.6081 61.333 26.4282C61.6883 26.1799 62.0872 26.0007 62.5089 25.8999C63.1399 25.7523 63.7965 25.7523 64.4275 25.8999C65.205 26.0938 65.921 26.4804 66.5092 27.024C67.5643 27.9997 68.2532 29.3068 68.4616 30.728C68.5285 31.1481 68.5624 31.5728 68.5628 31.9982C68.5698 32.1369 68.5527 32.2757 68.5122 32.4085V32.4085Z" fill="#455A64"/>
<path d="M120.331 97.9392L98.6978 89.3678C98.6978 89.3678 87.6194 74.8498 87.8501 74.5687L80.0688 83.0783L91.3779 98.3608L117.591 104.498L122.092 103.251C121.102 98.4788 120.331 97.9392 120.331 97.9392Z" fill="#FFBE9D"/>
<path d="M73.1824 56.5209L70.2342 55.3967L57.5073 57.0098V59.2581L57.1416 59.3031C54.3982 59.8857 51.7669 60.9068 49.3491 62.3269C47.0843 63.708 45.2848 65.7343 44.1819 68.1451C43.079 70.556 42.7232 73.2413 43.1601 75.8558C43.6777 79.0707 44.6792 82.9771 46.6147 85.2365C50.3112 89.5588 53.687 84.2192 53.687 84.2192C53.687 84.2192 56.0051 89.5026 55.87 92.0038C55.7575 94.1002 54.8348 98.4618 54.5366 99.822C54.5243 99.8764 54.5233 99.9327 54.5336 99.9874C54.5438 100.042 54.5651 100.094 54.5961 100.141C54.6272 100.187 54.6674 100.226 54.7142 100.257C54.761 100.287 54.8136 100.307 54.8685 100.317L81.7176 105.28L81.847 98.7204L80.9918 71.7415L79.7821 61.2646C79.7821 61.2646 79.8215 56.2623 73.1824 56.5209Z" fill="#029AAD"/>
<path d="M79.3716 59.5223L89.6116 74.2989L81.3689 84.3261L79.3716 59.5223Z" fill="#029AAD"/>
<path d="M81.5824 90.6154C81.5457 90.2984 81.5325 89.979 81.543 89.6599C81.543 88.9967 81.543 88.1255 81.5093 87.0632C81.4595 84.2121 81.2547 81.3657 80.896 78.5368C80.474 75.2206 79.827 72.2585 79.3375 70.1058L78.7411 67.5766C78.6546 67.2706 78.5907 66.9588 78.5498 66.6436C78.6778 66.9356 78.7795 67.2384 78.8536 67.5485C79.028 68.1105 79.2644 68.993 79.5344 70.0609C80.2609 72.8341 80.8133 75.6498 81.1886 78.4918C81.5503 81.3326 81.7269 84.1939 81.7175 87.0576C81.7175 88.1817 81.6893 89.0473 81.6556 89.6599C81.6585 89.9799 81.634 90.2996 81.5824 90.6154V90.6154Z" fill="#263238"/>
<path d="M56.3762 68.1499C56.3762 68.1948 55.5997 68.1892 54.3563 68.251C52.7339 68.3389 51.1203 68.5475 49.5289 68.8749C47.9379 69.2085 46.3734 69.6574 44.8477 70.2183C43.6775 70.651 42.9742 70.9714 42.9517 70.9265C43.0959 70.8135 43.2549 70.7209 43.4243 70.651C43.7337 70.4824 44.1951 70.2688 44.7746 70.0272C47.8106 68.7747 51.0552 68.1036 54.3394 68.0487C54.9696 68.0487 55.4647 68.0487 55.8304 68.0824C56.0148 68.0765 56.1989 68.0993 56.3762 68.1499Z" fill="#FAFAFA"/>
<path d="M80.0918 74.9115C79.6802 75.0609 79.2508 75.1554 78.8146 75.1926C76.7341 75.496 74.6262 75.5676 72.5299 75.4061C72.0921 75.3986 71.6571 75.3344 71.2358 75.2151C71.6701 75.1765 72.1069 75.1765 72.5412 75.2151C73.3401 75.2151 74.4485 75.2151 75.6694 75.2151C76.8903 75.2151 77.9931 75.0914 78.7921 75.0183C79.2211 74.9434 79.6562 74.9077 80.0918 74.9115Z" fill="#FAFAFA"/>
<path d="M84.7897 68.2287C84.1695 68.9445 83.4264 69.5441 82.5954 69.9992C81.8109 70.5289 80.9355 70.91 80.0129 71.1233C79.9792 71.0446 81.1382 70.5612 82.4435 69.7294C83.7488 68.8975 84.7334 68.1612 84.7897 68.2287Z" fill="#FAFAFA"/>
<path d="M80.6541 61.3771C78.879 62.9723 76.6172 63.9228 74.2344 64.075C74.2344 63.9851 75.7816 63.749 77.5596 62.9902C79.3375 62.2314 80.5978 61.304 80.6541 61.3771Z" fill="#FAFAFA"/>
<path d="M81.2113 86.355C81.0458 86.4662 80.8685 86.5586 80.6825 86.6305C80.328 86.7991 79.816 87.007 79.1633 87.2487C77.4677 87.8574 75.7173 88.3016 73.9364 88.5752C72.1557 88.8498 70.3522 88.9496 68.552 88.8731C67.86 88.845 67.303 88.7944 66.9204 88.7438C66.72 88.7305 66.5219 88.6947 66.3296 88.637C66.3296 88.5864 67.1848 88.637 68.5801 88.6707C72.1574 88.7041 75.7164 88.1574 79.1183 87.052C80.4011 86.6305 81.1945 86.3101 81.2113 86.355Z" fill="#FAFAFA"/>
<path d="M81.4192 93.9709C81.4192 93.9709 81.3404 94.0272 81.1773 94.1115L80.4571 94.4262C79.8382 94.7185 78.9211 95.1007 77.7733 95.5503C76.6255 96 75.2358 96.4328 73.6717 96.8599C70.2713 97.7747 66.781 98.3156 63.2629 98.4731C61.6425 98.5349 60.1853 98.5293 58.9587 98.4731C57.7322 98.4168 56.7476 98.3269 56.0668 98.2314L55.2847 98.1246C55.1926 98.1179 55.1018 98.099 55.0146 98.0684C55.106 98.0539 55.199 98.0539 55.2903 98.0684L56.078 98.119C56.7588 98.1752 57.7659 98.2314 58.9644 98.2651C60.1628 98.2988 61.6425 98.2651 63.2517 98.2089C64.8608 98.1527 66.6275 97.9503 68.4673 97.6468C70.3071 97.3433 72.0401 96.978 73.6042 96.5845C75.1683 96.1911 76.5524 95.7471 77.7002 95.3368C78.848 94.9264 79.7819 94.5836 80.4121 94.325L81.1435 94.0384C81.2328 94.0063 81.3252 93.9837 81.4192 93.9709V93.9709Z" fill="#FAFAFA"/>
<path d="M32.0704 213.46L29.0265 227.191L23.4733 237.358C23.3789 237.532 23.3211 237.723 23.3036 237.92C23.286 238.117 23.3091 238.315 23.3713 238.503C23.4335 238.69 23.5336 238.863 23.6653 239.01C23.7971 239.158 23.9577 239.276 24.1372 239.359V239.359C24.3457 239.455 24.574 239.499 24.803 239.488C25.0321 239.478 25.2553 239.412 25.4538 239.298C28.0307 237.814 37.4886 232.289 37.6518 231.271C37.8487 230.097 41.8265 217.001 41.8265 217.001L32.0704 213.46Z" fill="#029AAD"/>
<g opacity="0.6">
<path d="M24.1372 239.359L37.8824 230.366L37.7362 230.928C37.6159 231.43 37.3207 231.872 36.9034 232.176C35.7782 232.98 32.6443 235.138 25.4988 239.309C25.2936 239.429 25.0619 239.496 24.8244 239.505C24.5868 239.514 24.3507 239.464 24.1372 239.359V239.359Z" fill="white"/>
</g>
<g opacity="0.6">
<path d="M36.1552 225.257C35.9567 225.34 35.7957 225.493 35.7033 225.687C35.6109 225.881 35.5935 226.102 35.6544 226.308C35.7295 226.509 35.8787 226.673 36.0712 226.767C36.2638 226.861 36.4851 226.878 36.6897 226.814C36.9022 226.726 37.0743 226.562 37.1721 226.354C37.2699 226.146 37.2865 225.91 37.2186 225.69C37.1189 225.491 36.9468 225.338 36.7376 225.261C36.5283 225.185 36.2978 225.192 36.0933 225.28" fill="white"/>
</g>
<path d="M28.7285 234.155C28.5015 233.649 28.1829 233.19 27.7889 232.8C27.335 232.484 26.8252 232.257 26.2866 232.131C26.2866 232.092 26.4835 232.03 26.8155 232.064C27.2475 232.119 27.654 232.299 27.9858 232.581C28.3201 232.852 28.5668 233.216 28.6947 233.626C28.7904 233.947 28.7622 234.155 28.7285 234.155Z" fill="#263238"/>
<path d="M27.305 235.745C27.2262 235.79 26.8942 235.239 26.236 234.863C25.816 234.668 25.3838 234.501 24.9419 234.363C25.1848 234.283 25.4431 234.263 25.6956 234.303C25.948 234.343 26.1873 234.442 26.3935 234.593C27.1418 235.026 27.3837 235.728 27.305 235.745Z" fill="#263238"/>
<path d="M31.1138 232.255C30.6353 231.724 30.1161 231.232 29.5609 230.782C28.9492 230.41 28.3097 230.084 27.6479 229.81C28.4089 229.794 29.1506 230.049 29.741 230.529C30.3918 230.92 30.8793 231.533 31.1138 232.255Z" fill="#263238"/>
<path d="M32.391 228.157C32.3347 228.231 31.6539 227.73 30.7031 227.455C29.7522 227.179 28.8914 227.224 28.8857 227.129C29.512 226.967 30.1704 226.977 30.7914 227.158C31.4123 227.339 31.9728 227.684 32.4135 228.157H32.391Z" fill="#263238"/>
<path d="M33.3869 224.15C32.8381 223.811 32.2456 223.548 31.6259 223.369C30.9874 223.282 30.3401 223.282 29.7017 223.369C29.7017 223.335 29.8761 223.2 30.2362 223.093C30.7095 222.965 31.2063 222.949 31.687 223.046C32.1676 223.144 32.6188 223.352 33.0043 223.655C33.2913 223.925 33.4094 224.127 33.3869 224.15Z" fill="#263238"/>
<path d="M31.8343 222.61C31.8347 222.431 31.8731 222.255 31.9468 222.093C32.1063 221.629 32.359 221.202 32.6895 220.839C32.9058 220.552 33.21 220.343 33.556 220.244C33.6738 220.224 33.7947 220.241 33.903 220.291C34.0113 220.341 34.1021 220.422 34.1636 220.525C34.267 220.734 34.2891 220.974 34.2255 221.199C34.0813 221.65 33.7846 222.037 33.3864 222.293C32.9881 222.549 32.513 222.659 32.0425 222.604C31.5785 222.538 31.1444 222.336 30.795 222.024C30.4455 221.712 30.1964 221.304 30.0789 220.851C30.0519 220.735 30.0494 220.616 30.0717 220.5C30.094 220.383 30.1406 220.273 30.2083 220.176C30.286 220.085 30.3906 220.022 30.507 219.995C30.6233 219.967 30.7453 219.978 30.8553 220.024C31.1733 220.183 31.4448 220.421 31.643 220.716C31.9412 221.106 32.1679 221.545 32.3126 222.014C32.3811 222.182 32.4137 222.362 32.4082 222.542C32.1814 221.936 31.8646 221.368 31.4686 220.856C31.2842 220.616 31.045 220.423 30.7709 220.294C30.7107 220.268 30.6435 220.262 30.5796 220.277C30.5157 220.293 30.4585 220.328 30.4165 220.378C30.3771 220.445 30.3519 220.518 30.3422 220.595C30.3325 220.671 30.3386 220.749 30.3602 220.823C30.4776 221.204 30.7004 221.545 31.003 221.805C31.3056 222.066 31.6756 222.235 32.0706 222.295C32.4686 222.341 32.8705 222.251 33.2107 222.04C33.551 221.829 33.8095 221.509 33.9442 221.132C33.9987 220.979 33.9987 220.812 33.9442 220.66C33.9123 220.602 33.8631 220.556 33.8036 220.527C33.744 220.499 33.6771 220.49 33.6122 220.502C33.319 220.583 33.0577 220.751 32.8639 220.986C32.4323 221.466 32.0843 222.015 31.8343 222.61V222.61Z" fill="#263238"/>
<g opacity="0.3">
<path d="M31.6993 214.949L31.041 218.097L40.9941 219.749L41.8268 217.001L32.0538 213.46L31.6993 214.949Z" fill="black"/>
</g>
<path d="M76.5189 218.541L75.6974 229.512C75.6974 229.512 86.5901 234.008 86.6351 236.077L65.2549 235.251L65.8175 218.097L76.5189 218.541Z" fill="#029AAD"/>
<g opacity="0.6">
<path d="M69.1426 228.332C68.9351 228.387 68.7552 228.517 68.637 228.696C68.5188 228.875 68.4705 229.092 68.5012 229.304C68.5486 229.513 68.6738 229.696 68.8515 229.816C69.0291 229.936 69.2459 229.984 69.4577 229.95C69.6784 229.892 69.8695 229.754 69.9942 229.563C70.1189 229.372 70.1683 229.141 70.1329 228.916C70.0618 228.703 69.9108 228.525 69.7116 228.42C69.5123 228.316 69.2802 228.292 69.0639 228.354" fill="white"/>
</g>
<g opacity="0.6">
<path d="M65.2661 235.251L65.3899 233.52L85.8418 234.942C85.8418 234.942 86.7814 235.391 86.6463 236.066L65.2661 235.251Z" fill="white"/>
</g>
<path d="M76.0574 229.416C76.0574 229.523 75.5285 229.551 75.0053 229.866C74.482 230.181 74.1895 230.608 74.0938 230.563C73.9982 230.518 74.1782 229.922 74.8196 229.551C75.461 229.18 76.0856 229.321 76.0574 229.416Z" fill="#263238"/>
<path d="M78.2631 230.445C78.2631 230.552 77.8243 230.709 77.4529 231.136C77.0816 231.564 76.9635 232.024 76.8566 232.019C76.7497 232.013 76.7103 231.417 77.1829 230.895C77.6555 230.372 78.2631 230.333 78.2631 230.445Z" fill="#263238"/>
<path d="M79.4332 233.16C79.3376 233.16 79.2138 232.648 79.5007 232.092C79.7877 231.535 80.2884 231.322 80.3278 231.412C80.3672 231.502 80.0578 231.794 79.8271 232.255C79.5964 232.716 79.5345 233.154 79.4332 233.16Z" fill="#263238"/>
<path d="M75.9562 226.898C75.9112 226.988 75.4385 226.825 74.8309 226.842C74.2232 226.859 73.7731 227.028 73.7056 226.938C73.6381 226.848 74.1107 226.494 74.8309 226.482C75.5511 226.471 76.0237 226.82 75.9562 226.898Z" fill="#263238"/>
<g opacity="0.3">
<path d="M76.367 220.716L76.2207 222.672L65.7275 222.166L65.8007 219.906L76.367 220.716Z" fill="black"/>
</g>
<path d="M76.0967 224.678C75.7432 224.764 75.3728 224.748 75.0277 224.633C74.6376 224.552 74.2595 224.422 73.9024 224.245C73.6942 224.143 73.493 224.027 73.3004 223.897C73.1829 223.825 73.0768 223.736 72.9853 223.633C72.9233 223.552 72.8896 223.453 72.8896 223.352C72.8896 223.25 72.9233 223.151 72.9853 223.071C73.04 223 73.111 222.943 73.1922 222.905C73.2734 222.866 73.3626 222.848 73.4523 222.852C73.5878 222.857 73.722 222.88 73.8518 222.919C74.0769 222.985 74.2955 223.071 74.5045 223.178C74.8598 223.351 75.1847 223.581 75.4666 223.858C75.9448 224.335 76.0967 224.734 76.063 224.751C76.0292 224.768 75.7873 224.448 75.2978 224.049C75.0104 223.824 74.6968 223.636 74.3638 223.487C74.1653 223.405 73.9624 223.333 73.7561 223.273C73.5311 223.206 73.3398 223.2 73.2779 223.273C73.216 223.346 73.2779 223.329 73.2779 223.397C73.3454 223.471 73.423 223.535 73.5086 223.588C73.6891 223.713 73.877 223.828 74.0712 223.931C74.3957 224.109 74.7367 224.256 75.0896 224.369C75.4322 224.448 75.7688 224.551 76.0967 224.678V224.678Z" fill="#263238"/>
<path d="M75.9562 224.824C75.7692 224.509 75.6847 224.144 75.7143 223.779C75.7165 223.384 75.781 222.991 75.9056 222.615C75.9863 222.396 76.0861 222.183 76.2038 221.98C76.267 221.841 76.3648 221.721 76.4879 221.63C76.6111 221.54 76.7554 221.482 76.9071 221.463C77.0031 221.469 77.0954 221.503 77.1732 221.56C77.2509 221.616 77.3108 221.694 77.3459 221.784C77.3948 221.91 77.4251 222.042 77.4359 222.177C77.4729 222.415 77.4729 222.658 77.4359 222.897C77.3607 223.294 77.1887 223.666 76.9352 223.981C76.4963 224.543 76.0575 224.628 76.0462 224.594C76.035 224.56 76.3838 224.352 76.727 223.83C76.924 223.532 77.0527 223.194 77.104 222.84C77.1325 222.635 77.1325 222.427 77.104 222.222C77.0758 221.997 76.9971 221.806 76.9127 221.829C76.8283 221.851 76.6201 221.986 76.5245 222.166C76.4146 222.346 76.3187 222.534 76.2375 222.728C76.1073 223.067 76.024 223.423 75.9899 223.785C75.9168 224.414 76.0125 224.824 75.9562 224.824Z" fill="#263238"/>
<path d="M54.4185 100.216C54.4185 100.216 51.0426 100.367 48.7921 111.901C46.5415 123.434 29.3867 216.888 29.3867 216.888L41.8266 217.001L65.2661 128.15L63.7076 219.766L76.3444 220.733C76.3444 220.733 85.8249 119.399 85.9093 113.503C86.0218 106.151 81.7964 98.7148 81.7964 98.7148L54.4185 100.216Z" fill="#263238"/>
<path d="M71.5169 99.232C71.5956 99.232 70.3016 105.836 68.6305 113.947C66.9595 122.057 65.5417 128.622 65.4629 128.605C65.3841 128.588 66.6726 122.001 68.3436 113.891C70.0146 105.78 71.455 99.2151 71.5169 99.232Z" fill="#455A64"/>
<path d="M73.4523 100.879C73.4523 100.845 73.7899 100.744 74.1781 101.087C74.2884 101.187 74.3757 101.309 74.434 101.446C74.4922 101.583 74.5201 101.731 74.5157 101.879C74.5016 102.067 74.4344 102.247 74.3218 102.398C74.2093 102.55 74.056 102.666 73.8799 102.733C73.7081 102.811 73.5179 102.84 73.3309 102.815C73.1439 102.79 72.9676 102.713 72.8222 102.593C72.7134 102.491 72.6275 102.367 72.5703 102.23C72.513 102.092 72.4858 101.944 72.4902 101.795C72.4902 101.278 72.8391 101.098 72.8447 101.132C72.7498 101.338 72.6999 101.562 72.6984 101.789C72.7059 101.903 72.7362 102.015 72.7874 102.117C72.8386 102.219 72.9097 102.31 72.9966 102.385C73.1076 102.461 73.2361 102.509 73.3702 102.523C73.5043 102.537 73.6397 102.517 73.7641 102.465C73.8884 102.413 73.9977 102.33 74.0819 102.225C74.166 102.12 74.2223 101.995 74.2457 101.862C74.2539 101.748 74.2393 101.634 74.2026 101.526C74.1658 101.418 74.1078 101.318 74.0318 101.233C73.7562 100.912 73.4467 100.924 73.4523 100.879Z" fill="#455A64"/>
<path d="M72.9181 105.443C72.9181 105.409 73.267 105.443 73.4808 105.909C73.5351 106.042 73.5598 106.186 73.553 106.329C73.5462 106.473 73.5081 106.614 73.4414 106.741C73.3446 106.892 73.2084 107.015 73.0473 107.095C72.8862 107.175 72.7063 107.209 72.527 107.195C72.3477 107.18 72.1757 107.118 72.0295 107.013C71.8833 106.908 71.7684 106.766 71.6972 106.6C71.6522 106.465 71.6375 106.321 71.654 106.18C71.6706 106.038 71.7179 105.901 71.7929 105.78C72.0573 105.358 72.4174 105.37 72.4061 105.403C72.3949 105.437 72.1361 105.516 71.9729 105.875C71.8903 106.077 71.8903 106.303 71.9729 106.505C72.0316 106.616 72.1177 106.711 72.223 106.781C72.3283 106.85 72.4494 106.892 72.5752 106.902C72.7009 106.912 72.8272 106.89 72.9423 106.838C73.0573 106.787 73.1574 106.707 73.2332 106.606C73.3392 106.414 73.3654 106.188 73.3063 105.977C73.1432 105.594 72.89 105.482 72.9181 105.443Z" fill="#455A64"/>
<path d="M60.9957 100.991C60.9726 101.184 60.9234 101.373 60.8494 101.553C60.6737 102.068 60.4534 102.566 60.1911 103.043C59.3327 104.633 58.0928 105.985 56.5826 106.979C55.0724 107.972 53.339 108.576 51.5378 108.736C50.9968 108.783 50.4527 108.783 49.9118 108.736C49.7212 108.73 49.5321 108.7 49.3491 108.646C49.3491 108.59 50.1987 108.686 51.5434 108.517C53.296 108.305 54.9753 107.689 56.4495 106.719C57.9236 105.748 59.1524 104.45 60.0392 102.925C60.6975 101.789 60.9451 100.974 60.9957 100.991Z" fill="#455A64"/>
<path d="M85.2002 109.192C85.2002 109.192 85.0539 109.124 84.8232 108.967C84.5009 108.735 84.1997 108.476 83.923 108.191C82.9977 107.255 82.2757 106.139 81.8023 104.912C81.3289 103.684 81.1142 102.373 81.1717 101.059C81.1846 100.663 81.2355 100.27 81.3236 99.8839C81.3855 99.6084 81.4249 99.4623 81.4474 99.4679C81.4699 99.4736 81.3799 100.081 81.3799 101.064C81.3808 103.646 82.3412 106.136 84.0749 108.051C84.7332 108.776 85.2283 109.147 85.2002 109.192Z" fill="#455A64"/>
<path d="M128.844 109.518C129.03 109.068 128.979 109.248 125.997 107.269C125.997 107.269 130.273 110.08 129.829 108.742C129.444 108.235 128.974 107.8 128.439 107.455C129.564 108.118 130.217 108.191 130.414 107.921C130.751 107.455 128.304 105.673 127.139 104.869C128.204 105.63 129.321 106.316 130.481 106.921C131.173 107.135 130.841 106.325 130.374 105.735C129.907 105.145 126.284 101.66 125.311 100.62C125.218 100.541 125.144 100.443 125.093 100.332C125.042 100.222 125.015 100.101 125.015 99.9795C125.015 99.8577 125.042 99.7374 125.093 99.6267C125.144 99.5161 125.218 99.4179 125.311 99.3387C127.055 98.2146 127.82 96.4216 127.798 95.8315C127.778 95.6986 127.717 95.5753 127.623 95.4792C127.529 95.3831 127.407 95.3193 127.275 95.2968C127.142 95.2743 127.006 95.2944 126.886 95.3541C126.765 95.4138 126.667 95.5101 126.605 95.6291C126.164 96.1758 125.651 96.6599 125.08 97.068C124.637 97.4133 124.138 97.6812 123.606 97.8605C122.987 98.0628 119.943 97.8942 119.29 97.5626L117.214 104.594C117.214 104.594 124.748 108.113 126.177 108.798C127.933 109.63 128.715 109.861 128.844 109.518Z" fill="#FFBE9D"/>
<path d="M124.641 106.229C124.579 106.314 125.558 107.028 126.824 107.831C128.09 108.635 129.153 109.214 129.204 109.13C129.255 109.045 128.276 108.326 127.015 107.528C125.755 106.73 124.697 106.123 124.641 106.229Z" fill="#EB996E"/>
<path d="M125.35 104.853C125.294 104.937 126.295 105.757 127.6 106.69C128.906 107.624 129.986 108.315 130.042 108.236C130.099 108.157 129.103 107.331 127.792 106.398C126.481 105.465 125.412 104.774 125.35 104.853Z" fill="#EB996E"/>
<path d="M126.099 103.459C126.042 103.537 126.976 104.335 128.186 105.235C129.396 106.134 130.437 106.797 130.482 106.719C130.527 106.64 129.609 105.842 128.4 104.942C127.19 104.043 126.16 103.38 126.099 103.459Z" fill="#EB996E"/>
<path d="M49.473 77.9916L54.9981 78.2951C55.3895 79.836 55.9128 81.3404 56.5623 82.7916C61.0127 75.0802 64.4392 64.7439 65.3169 60.5902C65.1931 60.1818 65.0412 59.7209 64.8612 59.2076C64.7264 58.4315 64.7493 57.6363 64.9287 56.8694C65.0806 55.9476 65.3394 54.6998 65.4125 54.1265C65.6545 52.3729 65.9358 52.0919 66.5378 52.2942C67.3705 52.564 66.1946 57.2235 66.8754 57.3247C67.2467 57.3752 67.6912 55.779 67.8263 54.4694C67.9613 53.1598 68.5464 49.1354 68.9797 48.8488C69.6154 48.4553 70.1668 49.0792 70.0093 50.3832C69.8517 51.6872 69.6436 55.6385 70.3356 55.6891C71.0277 55.7396 71.5903 49.0624 71.5903 49.0624C71.5903 49.0624 71.4834 47.6122 72.2823 47.646C73.7283 47.7078 72.603 54.7504 72.4793 55.4193C72.3892 55.8802 73.1432 55.9813 73.2107 55.4642C73.2782 54.9471 73.627 48.7813 75.0955 48.8319C76.2208 48.8713 74.2234 54.6324 74.8592 55.9701C75.495 57.3078 75.9339 51.4343 77.0141 51.5129C77.4136 51.5467 77.7118 51.6254 76.9747 54.9471C76.2554 57.5886 75.3933 60.1891 74.3922 62.7373C72.7043 71.9551 65.1706 101.441 53.4002 96.045C46.8174 93.0268 43.7397 78.0591 43.7397 78.0591L49.473 77.9916Z" fill="#FFBE9D"/>
<path d="M74.4032 62.7878C74.4129 62.7182 74.4318 62.6501 74.4595 62.5855C74.5101 62.4394 74.572 62.2483 74.6564 62.0234C74.8421 61.4895 75.0952 60.7476 75.4272 59.7752C75.7592 58.8028 76.1586 57.6225 76.5525 56.2286C76.755 55.5372 76.9238 54.7841 77.0757 53.9803C77.1545 53.5757 77.2276 53.1597 77.2783 52.7326C77.2923 52.5211 77.2923 52.3089 77.2783 52.0974C77.2783 51.8782 77.2276 51.6984 77.0532 51.6928C76.8788 51.6871 76.755 51.7939 76.6312 51.9794C76.5192 52.1779 76.4268 52.3868 76.3556 52.6033C76.198 53.0473 76.0742 53.5195 75.9505 53.9972C75.8267 54.475 75.7141 54.9752 75.5679 55.481C75.5041 55.7581 75.3896 56.0211 75.2303 56.2567C75.1902 56.3028 75.1373 56.3361 75.0784 56.3522C75.0412 56.3604 75.0027 56.3601 74.9657 56.3513C74.9287 56.3426 74.8941 56.3256 74.8646 56.3016C74.7999 56.2424 74.7465 56.172 74.707 56.0937C74.6476 55.9557 74.6078 55.81 74.5889 55.6609C74.5632 54.5272 74.6766 53.3947 74.9265 52.2885C75.0221 51.7265 75.1234 51.1644 75.1965 50.6024C75.2303 50.3157 75.264 50.0403 75.2697 49.7368C75.2753 49.4333 75.2303 49.1129 75.1121 49.0623C74.994 49.0117 74.707 49.1691 74.5495 49.4052C74.394 49.6545 74.2711 49.9227 74.1838 50.2033C73.9919 50.7904 73.8471 51.3918 73.7505 52.0019C73.6436 52.6202 73.5592 53.2497 73.4861 53.8904C73.458 54.2108 73.4242 54.5312 73.3961 54.8572L73.3511 55.3461C73.3571 55.4506 73.34 55.5551 73.3011 55.6522C73.2622 55.7493 73.2025 55.8367 73.126 55.9082C73.0297 55.9785 72.9134 56.0165 72.7941 56.0165C72.6747 56.0165 72.5585 55.9785 72.4621 55.9082C72.4075 55.8722 72.3613 55.825 72.3263 55.7698C72.2914 55.7145 72.2687 55.6525 72.2595 55.5878C72.251 55.5282 72.251 55.4676 72.2595 55.408V55.2899L72.4115 54.3063C72.5071 53.6431 72.5859 52.9799 72.6478 52.3054C72.7097 51.6309 72.7603 50.9508 72.7715 50.2707C72.8045 49.5974 72.7362 48.9229 72.569 48.2698C72.5302 48.1041 72.4296 47.9593 72.2877 47.8651C72.2198 47.8433 72.1468 47.8436 72.0791 47.8658C72.0114 47.888 71.9524 47.931 71.9107 47.9888C71.7285 48.3215 71.6539 48.7024 71.6969 49.0792V49.0792C71.5731 50.4 71.4325 51.6984 71.2412 52.9742C71.1455 53.6094 71.0386 54.2445 70.8811 54.8684C70.8361 55.0201 70.7911 55.1775 70.7348 55.3349C70.6813 55.5256 70.5691 55.6947 70.4141 55.8183C70.3455 55.8519 70.2676 55.8613 70.193 55.845C70.1184 55.8287 70.0516 55.7875 70.0034 55.7283C69.9347 55.6563 69.8828 55.5699 69.8515 55.4754C69.7908 55.3195 69.7474 55.1574 69.7221 54.992C69.5902 53.7689 69.5789 52.5359 69.6883 51.3105C69.7714 50.7394 69.8035 50.1619 69.7839 49.585C69.7657 49.3388 69.6528 49.1092 69.4689 48.9443C69.4257 48.9174 69.3775 48.8996 69.3272 48.8919C69.2769 48.8842 69.2256 48.8867 69.1763 48.8993C69.1237 48.917 69.0728 48.9396 69.0244 48.9668C68.9737 49.0117 68.9794 48.9668 68.9456 49.0623C68.7421 49.5678 68.5931 50.0935 68.5011 50.6305C68.3886 51.1925 68.293 51.704 68.2086 52.2323C68.1242 52.7607 68.0454 53.2778 67.9779 53.7949C67.9104 54.312 67.8766 54.8178 67.7753 55.3237C67.6879 55.8179 67.5561 56.3032 67.3815 56.7738C67.3351 56.8935 67.2806 57.01 67.2183 57.1223C67.1396 57.2291 67.0945 57.3639 66.8807 57.4314C66.826 57.4414 66.7696 57.435 66.7185 57.413C66.6674 57.391 66.624 57.3544 66.5938 57.3077C66.5544 57.2428 66.5241 57.1729 66.5038 57.0998C66.4785 56.9776 66.4634 56.8535 66.4588 56.7288C66.4588 55.7677 66.5882 54.8909 66.6388 54.0422C66.6755 53.6364 66.6755 53.2282 66.6388 52.8225C66.6388 52.6426 66.5544 52.4291 66.4531 52.3897C66.3822 52.355 66.3043 52.3369 66.2253 52.3369C66.1463 52.3369 66.0683 52.355 65.9974 52.3897C65.7612 52.6431 65.6149 52.9669 65.581 53.3115C65.4966 53.6543 65.4629 54.0028 65.401 54.3344C65.1647 55.6609 64.9171 56.8075 64.799 57.7405C64.7435 58.1508 64.7435 58.5667 64.799 58.9771C64.8777 59.3143 64.9959 59.6178 65.0578 59.8539C65.1197 60.0899 65.1816 60.2586 65.221 60.4159C65.2419 60.4762 65.257 60.5383 65.266 60.6014C65.2322 60.547 65.2058 60.4884 65.1872 60.4272L64.9959 59.8651C64.9171 59.6234 64.799 59.3536 64.7033 58.9827C64.6432 58.5614 64.6432 58.1337 64.7033 57.7124C64.8102 56.7625 65.0353 55.6272 65.266 54.2951C65.3279 53.9635 65.3616 53.615 65.4348 53.2553C65.4751 53.0653 65.5258 52.8777 65.5867 52.6932C65.6429 52.4888 65.7656 52.3088 65.9355 52.1817C66.0378 52.1276 66.1517 52.0993 66.2675 52.0993C66.3832 52.0993 66.4972 52.1276 66.5994 52.1817C66.7094 52.251 66.7998 52.3474 66.8619 52.4615C66.9239 52.5757 66.9556 52.7038 66.9539 52.8337C66.9933 53.2562 66.9933 53.6815 66.9539 54.104C66.9145 54.9583 66.7795 55.852 66.802 56.7625C66.8061 56.8702 66.8193 56.9774 66.8414 57.0829C66.8414 57.1897 66.9201 57.2347 66.9089 57.2122C66.8976 57.1897 67.0158 57.1223 67.0608 57.0323C67.1163 56.9326 67.1651 56.8293 67.2071 56.7232C67.3737 56.2676 67.4962 55.797 67.5728 55.318C67.6684 54.829 67.7022 54.3232 67.7697 53.8005C67.8372 53.2778 67.9047 52.7607 67.9891 52.2267C68.0735 51.6927 68.1692 51.1588 68.2761 50.6136C68.3676 50.0442 68.5262 49.4876 68.7487 48.9555C68.7937 48.8663 68.8616 48.7906 68.9456 48.7363C69.0204 48.6953 69.0997 48.6633 69.1819 48.6408C69.2763 48.6138 69.3753 48.6074 69.4724 48.6219C69.5695 48.6365 69.6623 48.6717 69.7446 48.7251C69.8751 48.8286 69.983 48.9579 70.0614 49.1049C70.1398 49.2519 70.1871 49.4134 70.2003 49.5794C70.2425 49.8852 70.2425 50.1954 70.2003 50.5012C70.1722 50.7878 70.144 51.0632 70.1272 51.378C70.0175 52.5752 70.0288 53.7803 70.1609 54.9752C70.185 55.1171 70.2227 55.2564 70.2734 55.3911C70.2903 55.4455 70.3192 55.4954 70.3578 55.5372C70.3578 55.5372 70.3578 55.5372 70.386 55.5372C70.386 55.6665 70.386 55.5372 70.386 55.5878C70.386 55.6384 70.386 55.5878 70.386 55.5429C70.4562 55.449 70.5112 55.3446 70.5491 55.2337C70.6016 55.0951 70.6467 54.949 70.6842 54.7953C70.8361 54.1995 70.9374 53.57 71.033 52.9405C71.2243 51.6759 71.365 50.3775 71.4831 49.0623V49.0904C71.4331 48.6271 71.5337 48.16 71.7701 47.7583C71.8603 47.6435 71.9841 47.5596 72.1242 47.5183C72.2644 47.477 72.414 47.4804 72.5521 47.5279C72.6701 47.5933 72.7738 47.6817 72.8569 47.7879C72.94 47.8941 73.0009 48.016 73.036 48.1461C73.2162 48.8373 73.2902 49.5518 73.2554 50.2651C73.2554 50.9621 73.1935 51.6478 73.1316 52.3279C73.0697 53.008 72.9854 53.6768 72.8897 54.3401C72.8391 54.6773 72.7884 55.0033 72.7378 55.3349C72.6928 55.5429 72.704 55.5485 72.7378 55.6103C72.7768 55.6367 72.8229 55.6507 72.87 55.6507C72.9171 55.6507 72.9632 55.6367 73.0022 55.6103C73.0697 55.5597 73.081 55.4642 73.0979 55.2787L73.1373 54.7897L73.2385 53.8173C73.3061 53.1766 73.3961 52.5358 73.503 51.912C73.6071 51.2853 73.7575 50.6672 73.9531 50.0628C74.0552 49.7573 74.1931 49.4648 74.3638 49.1916C74.4567 49.0443 74.5794 48.9179 74.7239 48.8206C74.8041 48.7626 74.8971 48.7247 74.995 48.7101C75.0929 48.6954 75.1928 48.7044 75.2865 48.7363C75.3727 48.7894 75.4455 48.8617 75.4992 48.9475C75.5528 49.0333 75.586 49.1303 75.596 49.2309C75.6192 49.3891 75.6286 49.5489 75.6241 49.7087C75.6241 50.0178 75.5847 50.3157 75.551 50.6136C75.4722 51.1757 75.3653 51.7714 75.264 52.3391C75.0224 53.4068 74.9053 54.4989 74.9152 55.5935C74.9311 55.711 74.9613 55.8261 75.0052 55.9363C75.0256 55.9762 75.0502 56.0139 75.0784 56.0487C75.0784 56.0487 75.0784 56.0487 75.0784 56.0094C75.2047 55.8062 75.2978 55.5842 75.3541 55.3518C75.5003 54.8628 75.6185 54.3682 75.7479 53.8848C75.864 53.4038 76.0048 52.9292 76.1699 52.4628C76.2478 52.2317 76.3496 52.0095 76.4737 51.7995C76.5408 51.6851 76.6286 51.5841 76.7325 51.5017C76.7891 51.4526 76.8566 51.4179 76.9294 51.4005C77.0021 51.3891 77.0762 51.3891 77.1489 51.4005C77.2256 51.4081 77.299 51.4361 77.3613 51.4816C77.4236 51.527 77.4726 51.5883 77.5033 51.659C77.5503 51.7771 77.5751 51.9029 77.5765 52.03C77.5808 52.2574 77.5677 52.4847 77.5371 52.7101C77.4865 53.1485 77.4021 53.5644 77.3233 53.9747C77.1601 54.7785 76.9801 55.5429 76.7606 56.223C76.3387 57.6169 75.9167 58.7972 75.5735 59.7583C75.2303 60.7195 74.9377 61.4445 74.7408 61.9616C74.6451 62.1977 74.5664 62.3832 74.5101 62.5237C74.4849 62.6156 74.449 62.7043 74.4032 62.7878Z" fill="#EB996E"/>
<path d="M43.689 78.6267C44.758 82.3981 46.851 88.2155 49.0959 94.3644C49.1667 94.5625 49.2947 94.7352 49.4638 94.8605C49.6329 94.9859 49.8354 95.0582 50.0457 95.0685C50.256 95.0787 50.4646 95.0263 50.6451 94.918C50.8256 94.8097 50.9698 94.6503 51.0595 94.46L56.5621 82.8309C56.5621 82.8309 55.2343 73.2759 55.3468 73.6188C55.4593 73.9616 43.9928 74.8553 43.9928 74.8553L43.689 78.6267Z" fill="#029AAD"/>
<path d="M56.0892 76.7551C56.0892 76.8001 55.4028 77.0024 54.3169 77.4183C52.8977 77.9565 51.5305 78.6224 50.2322 79.408C48.9355 80.1973 47.7116 81.1001 46.575 82.1059C45.7029 82.8759 45.2022 83.4043 45.1684 83.3706C45.1347 83.3368 45.2641 83.2132 45.4779 82.9603C45.7793 82.6088 46.0985 82.273 46.4343 81.9542C47.5434 80.8873 48.766 79.945 50.0802 79.1439C51.3949 78.3525 52.7907 77.7043 54.2438 77.2104C54.683 77.0592 55.13 76.9316 55.5828 76.8282C55.7466 76.777 55.9176 76.7523 56.0892 76.7551V76.7551Z" fill="#FAFAFA"/>
<path d="M58.2724 79.6554C57.9148 79.2953 57.6048 78.8911 57.3496 78.4526C56.6926 77.4291 56.1277 76.3495 55.6617 75.2263C55.1954 74.0998 54.832 72.9334 54.5758 71.7415C54.4447 71.254 54.3785 70.7513 54.3789 70.2465C54.5467 70.7177 54.6802 71.2005 54.7784 71.691C55.0798 72.8548 55.4557 73.9981 55.9037 75.1139C56.3717 76.2238 56.9091 77.3032 57.5128 78.3458C57.7938 78.7656 58.0475 79.203 58.2724 79.6554Z" fill="#263238"/>
<path d="M61.9409 28.1593C60.9863 29.7309 60.3946 31.4954 60.2087 33.3242C60.0228 35.1531 60.2474 37.0004 60.8662 38.7316C61.4288 40.2773 62.3291 41.8005 62.1659 43.4417C62.0027 45.0829 60.7199 46.7073 61.17 48.326C61.4401 49.2871 62.2616 50.0122 62.5823 50.9452C62.948 52.0693 62.5823 53.2553 62.3853 54.4075C61.9352 57.3527 62.8805 60.3148 63.1111 63.2824C63.3418 66.2501 62.5485 69.7293 59.8929 71.022C59.0883 71.4155 58.0361 71.5279 57.3666 70.9265C56.5114 70.1677 56.7477 68.7963 56.984 67.6721C59.3133 56.4309 52.1172 45.4595 53.7601 34.0834C54.0245 32.2623 55.0429 29.171 56.3539 27.9007C57.6648 26.6304 61.3051 26.7766 62.5429 28.1255" fill="#263238"/>
<path d="M50.8569 60.7701C50.8569 60.7701 51.2001 60.3654 51.7065 59.5673C52.4171 58.4401 52.9148 57.1923 53.175 55.8858C53.3448 54.9858 53.4033 54.0684 53.3494 53.1542C53.251 52.0911 53.2116 51.0235 53.2313 49.9561C53.2648 49.3715 53.3726 48.7936 53.552 48.2362C53.7576 47.6619 54.0176 47.1086 54.3284 46.5837C54.9586 45.5214 55.7519 44.5322 56.4833 43.4755C57.2344 42.4768 57.7568 41.3256 58.0137 40.1031C58.1384 38.9517 58.0719 37.7875 57.8168 36.6577C57.6039 35.6077 57.5207 34.5355 57.5692 33.4652C57.6361 32.5303 57.8253 31.6082 58.1318 30.7223C58.5616 29.4369 59.2382 28.2475 60.1236 27.2207C60.3588 26.9416 60.6145 26.6804 60.8888 26.4394C60.9757 26.3469 61.074 26.2657 61.1813 26.1978C61.1813 26.1978 60.8044 26.5631 60.208 27.3219C58.7875 29.0833 57.9569 31.246 57.8336 33.5045C57.796 34.5573 57.8886 35.6107 58.1093 36.6408C58.3777 37.801 58.45 38.9978 58.3231 40.1818C58.0564 41.4384 57.5188 42.6218 56.7477 43.6497C56.0107 44.7233 55.2174 45.7069 54.5985 46.7411C54.2941 47.2465 54.0415 47.7813 53.8445 48.3373C53.6665 48.872 53.5587 49.4274 53.5238 49.9898C53.4989 51.0454 53.529 52.1017 53.6139 53.1542C53.6585 54.0869 53.5867 55.0215 53.4001 55.9364C53.1181 57.2607 52.5832 58.5183 51.8247 59.6404C51.6193 59.9437 51.3937 60.2329 51.1495 60.5059C51.062 60.6044 50.9638 60.693 50.8569 60.7701V60.7701Z" fill="#455A64"/>
<path d="M45.5229 61.6075C45.5683 61.4764 45.6267 61.3503 45.6974 61.2309C45.838 60.9667 46.0181 60.6183 46.26 60.1799C46.7326 59.2637 47.4359 57.9316 48.128 56.2454C48.9745 54.2761 49.444 52.1656 49.512 50.0234C49.5124 49.4062 49.4653 48.7899 49.3714 48.1799C49.2757 47.5504 49.1295 46.9152 49.0338 46.252C48.9168 45.566 48.9321 44.8639 49.0788 44.1836C49.2691 43.4852 49.6603 42.8578 50.2041 42.3794C51.2618 41.4183 52.539 40.7888 53.2029 39.659C53.7782 38.5388 54.1171 37.3126 54.1988 36.0562C54.3179 34.9045 54.5787 33.7718 54.9753 32.6838C55.8671 30.3482 57.4561 28.3429 59.527 26.9396C59.8571 26.7176 60.201 26.5167 60.5566 26.3382C60.6767 26.2663 60.8052 26.2097 60.9392 26.1696C60.9392 26.1696 60.4328 26.4393 59.5945 27.0351C58.4129 27.8774 57.39 28.9221 56.5731 30.1208C56.0066 30.9425 55.5454 31.8319 55.2003 32.7682C54.8212 33.8587 54.5756 34.991 54.4689 36.1405C54.3001 37.3377 54.1651 38.6754 53.4449 39.8614C52.7247 41.0473 51.4081 41.7218 50.401 42.6717C49.8878 43.1166 49.5178 43.7033 49.3376 44.3578C49.2009 45.0015 49.1875 45.6652 49.2982 46.3138C49.3883 46.9602 49.5289 47.6009 49.6246 48.2361C49.7219 48.8607 49.7671 49.4924 49.7596 50.1246C49.6832 52.306 49.1885 54.4525 48.3024 56.4478C47.7268 57.7962 47.0731 59.1099 46.3444 60.3822L45.748 61.2646C45.6853 61.3865 45.6099 61.5015 45.5229 61.6075V61.6075Z" fill="#455A64"/>
<path d="M231.678 220.429C231.704 220.347 231.737 220.268 231.779 220.193C231.858 220.024 231.964 219.8 232.094 219.513C232.485 218.635 232.8 217.725 233.033 216.793C233.652 214.376 233.872 210.683 232.955 206.299C232.457 203.908 231.804 201.552 231.002 199.245C230.181 196.744 229.219 194.091 228.437 191.219C227.554 188.223 227.127 185.112 227.171 181.99C227.289 178.724 228.257 175.47 229.32 172.221C230.383 168.972 231.481 165.808 231.807 162.604C232.17 159.532 231.551 156.424 230.04 153.724C228.634 151.133 226.861 148.912 225.539 146.619C224.301 144.488 223.389 142.185 222.833 139.785C222.034 136.31 221.975 132.706 222.658 129.207C222.907 127.926 223.284 126.674 223.784 125.469C223.769 125.553 223.746 125.636 223.716 125.716L223.491 126.43C223.3 127.059 223.047 128.004 222.805 129.24C222.176 132.724 222.27 136.299 223.08 139.745C223.645 142.116 224.561 144.39 225.798 146.49C227.12 148.738 228.898 150.986 230.338 153.589C231.886 156.344 232.523 159.517 232.156 162.655C231.824 165.904 230.721 169.102 229.658 172.345C228.594 175.588 227.638 178.808 227.52 182.018C227.469 185.109 227.887 188.19 228.757 191.157C229.528 194.012 230.473 196.665 231.289 199.178C232.084 201.497 232.723 203.867 233.202 206.271C234.097 210.689 233.844 214.421 233.202 216.843C232.951 217.777 232.614 218.686 232.195 219.558L231.846 220.227C231.798 220.3 231.741 220.368 231.678 220.429V220.429Z" fill="#263238"/>
<path d="M227.339 148.884C227.339 148.884 224.65 140.279 229.477 135.243C229.515 135.203 229.563 135.173 229.616 135.158C229.669 135.144 229.725 135.144 229.778 135.159C229.831 135.174 229.879 135.204 229.916 135.244C229.954 135.285 229.979 135.335 229.989 135.389C230.248 136.811 230.569 141.139 227.339 148.884Z" fill="#029AAD"/>
<path d="M228.954 138.11C228.946 138.643 228.885 139.173 228.774 139.695C228.594 140.791 228.386 142.072 228.161 143.489C227.936 144.905 227.728 146.192 227.553 147.282C227.504 147.814 227.41 148.34 227.272 148.856C227.219 148.325 227.23 147.789 227.306 147.26C227.396 146.276 227.57 144.927 227.812 143.444C228.054 141.96 228.318 140.633 228.527 139.661C228.609 139.129 228.752 138.608 228.954 138.11Z" fill="#263238"/>
<path d="M230.501 169.18C230.501 169.18 232.15 160.317 238.778 158.125C238.83 158.106 238.886 158.103 238.94 158.115C238.994 158.127 239.044 158.154 239.084 158.192C239.123 158.231 239.152 158.279 239.165 158.333C239.179 158.387 239.177 158.443 239.16 158.496C238.722 159.861 236.983 163.835 230.501 169.18Z" fill="#029AAD"/>
<path d="M236.972 160.401C236.715 160.869 236.413 161.311 236.072 161.722L233.748 164.785L231.441 167.86C231.151 168.306 230.821 168.725 230.457 169.113C230.662 168.618 230.926 168.15 231.244 167.719C231.807 166.893 232.572 165.78 233.495 164.583C234.418 163.386 235.256 162.334 235.892 161.57C236.208 161.142 236.57 160.75 236.972 160.401V160.401Z" fill="#263238"/>
<path d="M228.712 191.399C228.712 191.399 227.711 182.439 233.416 178.421C233.46 178.386 233.513 178.365 233.568 178.36C233.624 178.355 233.68 178.365 233.729 178.391C233.779 178.416 233.82 178.455 233.849 178.503C233.877 178.551 233.891 178.607 233.888 178.662C233.872 180.107 233.36 184.412 228.712 191.399Z" fill="#029AAD"/>
<path d="M232.369 181.13C232.265 181.653 232.104 182.164 231.891 182.653L230.563 186.261C230.068 187.61 229.624 188.83 229.247 189.87C229.102 190.382 228.914 190.88 228.684 191.359C228.736 190.826 228.853 190.301 229.033 189.797C229.309 188.852 229.736 187.548 230.259 186.143C230.783 184.738 231.295 183.474 231.683 182.569C231.862 182.067 232.092 181.585 232.369 181.13V181.13Z" fill="#263238"/>
<path d="M233.703 213.757C233.703 213.757 233.028 204.764 238.868 200.954C238.914 200.922 238.967 200.904 239.023 200.901C239.078 200.899 239.133 200.912 239.182 200.938C239.23 200.965 239.27 201.005 239.297 201.054C239.324 201.102 239.337 201.157 239.335 201.212C239.267 202.657 238.604 206.945 233.703 213.757Z" fill="#029AAD"/>
<path d="M237.709 203.629C237.583 204.148 237.404 204.653 237.174 205.135C236.758 206.158 236.263 207.384 235.717 208.693C235.171 210.003 234.693 211.222 234.277 212.251C234.11 212.758 233.897 213.249 233.641 213.718C233.716 213.186 233.854 212.666 234.052 212.167C234.361 211.234 234.834 209.952 235.408 208.564C235.982 207.176 236.533 205.928 236.955 205.04C237.155 204.544 237.408 204.071 237.709 203.629V203.629Z" fill="#263238"/>
<path d="M223.469 141.325C223.469 141.325 215.49 137.143 215.316 130.179C215.315 130.124 215.33 130.071 215.357 130.023C215.385 129.976 215.425 129.937 215.472 129.911C215.52 129.885 215.574 129.871 215.629 129.873C215.684 129.875 215.737 129.891 215.783 129.92C216.97 130.741 220.267 133.574 223.469 141.325Z" fill="#029AAD"/>
<path d="M216.976 132.573C217.35 132.956 217.684 133.376 217.971 133.827C218.624 134.72 219.384 135.777 220.222 136.941L222.473 140.043C222.815 140.451 223.12 140.89 223.384 141.353C222.973 141.011 222.604 140.62 222.287 140.189C221.651 139.436 220.818 138.357 219.941 137.137C219.063 135.918 218.292 134.788 217.763 133.962C217.453 133.527 217.189 133.062 216.976 132.573V132.573Z" fill="#263238"/>
<path d="M232.06 159.8C232.06 159.8 223.823 156.118 223.243 149.165C223.239 149.111 223.249 149.056 223.274 149.007C223.298 148.958 223.336 148.917 223.382 148.887C223.429 148.858 223.483 148.843 223.537 148.842C223.592 148.842 223.646 148.856 223.693 148.884C224.926 149.632 228.386 152.251 232.06 159.8Z" fill="#029AAD"/>
<path d="M225.055 151.459C225.452 151.816 225.81 152.213 226.124 152.645L228.566 155.618L231.014 158.58C231.38 158.968 231.712 159.387 232.004 159.833C231.572 159.515 231.179 159.147 230.833 158.737C230.158 158.018 229.258 156.995 228.307 155.831C227.356 154.668 226.524 153.583 225.939 152.791C225.596 152.381 225.299 151.934 225.055 151.459V151.459Z" fill="#263238"/>
<path d="M227.306 180.422C227.306 180.422 221.679 173.396 224.307 166.932C224.328 166.881 224.362 166.837 224.406 166.805C224.451 166.772 224.503 166.753 224.558 166.748C224.612 166.743 224.667 166.754 224.716 166.779C224.765 166.803 224.807 166.841 224.836 166.887C225.618 168.107 227.491 172.019 227.306 180.422Z" fill="#029AAD"/>
<path d="M224.875 169.787C225.067 170.287 225.207 170.805 225.291 171.333C225.528 172.412 225.803 173.682 226.107 175.088C226.411 176.493 226.698 177.757 226.934 178.837C227.085 179.349 227.188 179.874 227.244 180.405C226.997 179.927 226.808 179.421 226.681 178.898C226.405 177.948 226.068 176.65 225.753 175.155C225.438 173.66 225.19 172.345 225.032 171.378C224.922 170.855 224.869 170.322 224.875 169.787V169.787Z" fill="#263238"/>
<path d="M232.932 204.652C232.932 204.652 224.757 200.836 224.296 193.877C224.29 193.822 224.301 193.766 224.325 193.716C224.35 193.666 224.389 193.624 224.436 193.595C224.483 193.566 224.538 193.55 224.594 193.55C224.65 193.551 224.704 193.567 224.752 193.596C225.961 194.366 229.376 197.047 232.932 204.652Z" fill="#029AAD"/>
<path d="M226.051 196.193C226.438 196.562 226.788 196.966 227.098 197.401L229.489 200.408L231.886 203.415C232.246 203.809 232.57 204.234 232.854 204.686C232.435 204.358 232.057 203.98 231.728 203.562C231.059 202.831 230.181 201.791 229.247 200.611C228.313 199.43 227.503 198.334 226.929 197.531C226.585 197.12 226.291 196.671 226.051 196.193V196.193Z" fill="#263238"/>
<path d="M249.198 169.22C249.198 169.22 249.198 169.287 249.198 169.416C249.198 169.546 249.198 169.759 249.198 169.979C249.198 170.541 249.142 171.254 249.102 172.165C249.001 174.087 248.849 176.768 248.675 179.972C248.112 183.232 246.424 186.846 244.173 190.359C242.536 192.944 240.798 195.294 239.335 197.48C238 199.399 236.8 201.409 235.745 203.494C235.047 204.904 234.482 206.375 234.057 207.89C233.917 208.423 233.804 208.845 233.742 209.132C233.716 209.281 233.676 209.428 233.624 209.57C233.626 209.419 233.645 209.268 233.68 209.12C233.72 208.828 233.804 208.401 233.933 207.856C234.312 206.315 234.849 204.818 235.537 203.387C236.583 201.285 237.781 199.262 239.121 197.334C240.595 195.131 242.3 192.776 243.932 190.207C246.154 186.711 247.808 183.153 248.433 179.944C248.658 176.746 248.843 174.07 248.995 172.148C249.068 171.238 249.13 170.512 249.175 169.967C249.175 169.742 249.215 169.551 249.232 169.405C249.212 169.345 249.201 169.283 249.198 169.22V169.22Z" fill="#263238"/>
<path d="M244.331 189.712C244.331 189.712 247.791 181.394 243.442 175.936C243.408 175.893 243.363 175.859 243.311 175.84C243.26 175.82 243.203 175.815 243.149 175.826C243.095 175.836 243.045 175.862 243.004 175.899C242.963 175.936 242.934 175.984 242.919 176.038C242.53 177.431 241.816 181.709 244.331 189.712Z" fill="#029AAD"/>
<path d="M243.701 178.842C243.85 179.355 243.942 179.883 243.977 180.416C244.1 181.394 244.235 182.748 244.342 184.249C244.449 185.75 244.5 187.11 244.5 188.099C244.534 188.633 244.501 189.169 244.404 189.696C244.307 189.171 244.26 188.638 244.263 188.105C244.19 186.981 244.1 185.705 244.005 184.272C243.909 182.838 243.819 181.54 243.74 180.438C243.675 179.909 243.661 179.374 243.701 178.842V178.842Z" fill="#263238"/>
<g opacity="0.3">
<path d="M244.331 189.712C244.331 189.712 247.791 181.394 243.442 175.936C243.408 175.893 243.363 175.859 243.311 175.84C243.26 175.82 243.203 175.815 243.149 175.826C243.095 175.836 243.045 175.862 243.004 175.899C242.963 175.936 242.934 175.984 242.919 176.038C242.53 177.431 241.816 181.709 244.331 189.712Z" fill="black"/>
</g>
<path d="M233.613 209.772C233.613 209.772 236.387 201.195 231.604 196.114C231.567 196.074 231.519 196.044 231.467 196.029C231.414 196.014 231.358 196.014 231.305 196.028C231.252 196.043 231.204 196.071 231.167 196.111C231.129 196.151 231.103 196.201 231.092 196.255C230.822 197.671 230.456 201.999 233.613 209.772Z" fill="#029AAD"/>
<path d="M232.1 198.97C232.295 199.469 232.431 199.99 232.505 200.521C232.707 201.482 232.949 202.825 233.18 204.309C233.411 205.793 233.568 207.148 233.652 208.131C233.726 208.662 233.735 209.2 233.681 209.733C233.547 209.217 233.457 208.69 233.411 208.159C233.247 207.063 233.056 205.782 232.848 204.36C232.64 202.938 232.437 201.656 232.285 200.56C232.171 200.037 232.109 199.505 232.1 198.97Z" fill="#263238"/>
<g opacity="0.3">
<path d="M233.613 209.772C233.613 209.772 236.387 201.195 231.604 196.114C231.567 196.074 231.519 196.044 231.467 196.029C231.414 196.014 231.358 196.014 231.305 196.028C231.252 196.043 231.204 196.071 231.167 196.111C231.129 196.151 231.103 196.201 231.092 196.255C230.822 197.671 230.456 201.999 233.613 209.772Z" fill="black"/>
</g>
<path d="M248.742 179.545C248.742 179.545 256.13 174.374 255.387 167.438C255.381 167.383 255.361 167.332 255.327 167.288C255.294 167.245 255.249 167.211 255.198 167.191C255.147 167.172 255.091 167.166 255.037 167.176C254.983 167.186 254.933 167.21 254.892 167.247C253.817 168.214 250.936 171.429 248.742 179.545Z" fill="#029AAD"/>
<g opacity="0.3">
<path d="M248.742 179.545C248.742 179.545 256.13 174.374 255.387 167.438C255.381 167.383 255.361 167.332 255.327 167.288C255.294 167.245 255.249 167.211 255.198 167.191C255.147 167.172 255.091 167.166 255.037 167.176C254.983 167.186 254.933 167.21 254.892 167.247C253.817 168.214 250.936 171.429 248.742 179.545Z" fill="black"/>
</g>
<path d="M254.048 170.029C253.901 170.544 253.696 171.04 253.435 171.507C253.013 172.395 252.399 173.609 251.685 174.936C250.97 176.262 250.284 177.437 249.755 178.269C249.495 178.736 249.179 179.17 248.815 179.562C249.013 179.067 249.258 178.593 249.547 178.145C250.076 177.173 250.7 176.037 251.387 174.773L253.221 171.4C253.451 170.918 253.728 170.458 254.048 170.029Z" fill="#263238"/>
<path d="M236.595 201.268C236.595 201.268 245.507 199.88 247.892 193.326C247.912 193.275 247.917 193.22 247.907 193.166C247.896 193.112 247.872 193.063 247.835 193.022C247.799 192.981 247.751 192.952 247.699 192.936C247.647 192.92 247.591 192.919 247.538 192.933C246.148 193.349 242.12 194.951 236.595 201.268Z" fill="#029AAD"/>
<g opacity="0.3">
<path d="M236.595 201.268C236.595 201.268 245.507 199.88 247.892 193.326C247.912 193.275 247.917 193.22 247.907 193.166C247.896 193.112 247.872 193.063 247.835 193.022C247.799 192.981 247.751 192.952 247.699 192.936C247.647 192.92 247.591 192.919 247.538 192.933C246.148 193.349 242.12 194.951 236.595 201.268Z" fill="black"/>
</g>
<path d="M245.552 195.063C245.191 195.457 244.787 195.81 244.348 196.114C243.577 196.733 242.491 197.553 241.27 198.43C240.049 199.307 238.907 200.054 238.063 200.571C237.623 200.878 237.147 201.129 236.646 201.319C237.045 200.963 237.476 200.645 237.934 200.369L241.073 198.155L244.207 195.906C244.624 195.578 245.075 195.296 245.552 195.063V195.063Z" fill="#263238"/>
<path d="M228.088 217.658L225.488 235.138H241.692L239.594 217.658H228.088Z" fill="#455A64"/>
<path d="M240.246 223.071C240.246 223.166 237.321 223.239 233.714 223.239C230.108 223.239 227.176 223.166 227.176 223.071C229.351 222.904 231.533 222.848 233.714 222.902C235.893 222.848 238.073 222.904 240.246 223.071V223.071Z" fill="#263238"/>
<path d="M240.561 224.465C240.561 224.56 237.54 224.633 233.81 224.633C230.079 224.633 227.058 224.56 227.058 224.465C227.058 224.369 230.079 224.296 233.81 224.296C237.54 224.296 240.561 224.369 240.561 224.465Z" fill="#263238"/>
<path d="M177.551 48.0787C177.551 48.0787 177.4 48.0787 177.107 48.0787C176.68 48.0534 176.251 48.0534 175.824 48.0787C174.172 48.1754 172.548 48.5556 171.025 49.2028C168.61 50.2139 166.509 51.8494 164.937 53.941C163.968 55.247 163.247 56.7197 162.81 58.2857C161.826 62.0162 162.358 65.9844 164.29 69.3246C164.817 70.2494 165.46 71.1032 166.203 71.8651C166.953 72.6724 167.827 73.3554 168.791 73.8886C169.781 74.445 170.902 74.7264 172.038 74.7035C173.208 74.6895 174.331 74.2361 175.183 73.4333C175.594 73.0024 175.917 72.4947 176.132 71.9392C176.348 71.3837 176.451 70.7913 176.437 70.1958C176.429 68.9586 176.036 67.7546 175.312 66.7504C173.855 64.6989 171.492 63.3218 168.977 62.5799C166.369 61.8482 163.615 61.8094 160.987 62.4675C159.646 62.816 158.354 63.3295 157.139 63.9963C155.913 64.6875 154.799 65.5612 153.836 66.5874C153.606 66.8515 153.341 67.0932 153.133 67.3855L152.497 68.2398C152.111 68.8419 151.765 69.469 151.462 70.1171C150.86 71.433 150.449 72.8278 150.241 74.2595C149.833 77.1197 150.222 80.037 151.366 82.6904C152.46 85.2831 154.365 87.4522 156.796 88.8731C157.974 89.5458 159.29 89.9436 160.644 90.0366C161.972 90.1108 163.293 89.7942 164.442 89.126C165.583 88.4961 166.485 87.5085 167.008 86.3157C167.501 85.1402 167.535 83.8225 167.103 82.623C166.659 81.4657 165.931 80.4378 164.988 79.6328C164.072 78.8426 163.017 78.2307 161.876 77.8286C159.652 77.1278 157.271 77.0868 155.023 77.7106C152.92 78.2798 150.989 79.3547 149.397 80.8412C147.947 82.2287 146.843 83.9361 146.173 85.8267C145.001 89.1071 145.055 92.7 146.325 95.9438C147.316 98.3654 148.91 100.494 150.956 102.126C152.244 103.159 153.68 103.994 155.215 104.605C155.744 104.802 156.154 104.948 156.436 105.027L156.852 105.162C156.852 105.162 156.706 105.134 156.424 105.055C156.009 104.944 155.599 104.81 155.198 104.656C153.643 104.072 152.189 103.249 150.888 102.216C148.807 100.585 147.182 98.4461 146.168 96.0056C144.875 92.7312 144.809 89.1009 145.982 85.7818C146.653 83.8625 147.769 82.1291 149.24 80.7232C150.854 79.2068 152.814 78.1071 154.95 77.5195C157.245 76.8799 159.676 76.9189 161.95 77.6319C163.124 78.041 164.21 78.6684 165.151 79.4811C166.132 80.3124 166.886 81.3776 167.345 82.578C167.808 83.8312 167.788 85.2114 167.289 86.4506C166.734 87.6904 165.793 88.7176 164.605 89.379C163.413 90.0729 162.045 90.405 160.667 90.3345C159.279 90.2378 157.933 89.8264 156.728 89.1316C154.242 87.6909 152.29 85.4842 151.164 82.8422C149.995 80.1402 149.594 77.1687 150.005 74.2539C150.22 72.7932 150.64 71.3702 151.254 70.0272C151.563 69.3653 151.916 68.725 152.312 68.1106L152.964 67.2394C153.172 66.9415 153.442 66.6773 153.679 66.4188C154.664 65.3731 155.802 64.4825 157.055 63.7771C158.297 63.0976 159.621 62.5765 160.993 62.2258C163.671 61.5554 166.477 61.5961 169.134 62.3438C171.7 63.1082 174.103 64.5078 175.616 66.6323C176.377 67.6785 176.79 68.9365 176.798 70.2295C176.825 71.502 176.345 72.7332 175.464 73.6525C174.564 74.4966 173.379 74.9721 172.145 74.9846C170.963 75.0114 169.797 74.7181 168.769 74.1359C167.781 73.5915 166.888 72.8911 166.124 72.0619C165.371 71.2828 164.719 70.4123 164.183 69.4708C162.216 66.0685 161.682 62.0252 162.698 58.2295C163.148 56.6453 163.886 55.1574 164.875 53.8398C166.476 51.7324 168.613 50.0923 171.064 49.0904C172.6 48.4557 174.236 48.098 175.897 48.0337C176.328 48.0054 176.761 48.0054 177.191 48.0337L177.551 48.0787Z" fill="#263238"/>
<path d="M196.338 104.318H117.451V165.1H196.338V104.318Z" fill="#029AAD"/>
<path d="M117.451 104.318L132.023 117.898H209.571L196.338 104.318H117.451Z" fill="#029AAD"/>
<path d="M117.451 104.318L196.361 104.178H196.422L196.467 104.217L209.566 117.656L209.701 117.797L209.943 118.044H209.594L132.045 117.982H132.012L117.451 104.318L132.079 117.808H132.017L209.566 117.752L209.464 117.999L209.324 117.859L196.231 104.42L196.332 104.465L117.451 104.318Z" fill="#263238"/>
<path d="M141.149 132.349C140.721 132.364 140.317 132.546 140.023 132.857C139.729 133.167 139.569 133.58 139.576 134.007C139.584 134.434 139.759 134.841 140.065 135.14C140.37 135.44 140.78 135.607 141.208 135.607C141.635 135.607 142.046 135.44 142.351 135.14C142.656 134.841 142.831 134.434 142.839 134.007C142.847 133.58 142.687 133.167 142.392 132.857C142.098 132.546 141.694 132.364 141.267 132.349" fill="#263238"/>
<path d="M159.789 132.349C159.363 132.365 158.961 132.547 158.668 132.856C158.376 133.166 158.217 133.577 158.225 134.003C158.233 134.428 158.408 134.833 158.712 135.131C159.016 135.429 159.425 135.596 159.851 135.596C160.277 135.596 160.685 135.429 160.989 135.131C161.293 134.833 161.468 134.428 161.476 134.003C161.484 133.577 161.325 133.166 161.033 132.856C160.74 132.547 160.338 132.365 159.913 132.349" fill="#263238"/>
<path d="M159.896 146.895C159.571 145.653 159.042 144.474 158.332 143.404C157.542 142.261 156.527 141.289 155.35 140.549C153.929 139.607 152.273 139.083 150.569 139.037C148.865 138.99 147.182 139.422 145.712 140.285C144.498 140.962 143.432 141.876 142.578 142.971C141.809 144.001 141.217 145.153 140.828 146.378C140.832 146.286 140.848 146.196 140.873 146.108C140.927 145.855 140.997 145.605 141.081 145.36C141.39 144.457 141.84 143.609 142.415 142.848C143.263 141.701 144.342 140.743 145.582 140.038C147.09 139.138 148.823 138.686 150.578 138.734C152.334 138.782 154.039 139.327 155.496 140.307C156.694 141.076 157.717 142.087 158.501 143.275C159.035 144.068 159.44 144.941 159.699 145.86C159.768 146.11 159.823 146.363 159.862 146.619C159.882 146.71 159.893 146.802 159.896 146.895V146.895Z" fill="#263238"/>
<path opacity="0.5" d="M117.63 104.987L131.584 122.659H196.338V117.898H132.023L117.63 104.987Z" fill="black"/>
<path d="M180.781 164.965C180.702 164.965 180.635 154.393 180.635 141.358C180.635 128.324 180.702 117.752 180.781 117.752C180.86 117.752 180.933 128.319 180.933 141.358C180.933 154.398 180.865 164.965 180.781 164.965Z" fill="#263238"/>
<path d="M193.17 151.183H186.216V159.035H193.17V151.183Z" fill="#F5F5F5"/>
<path d="M117.451 104.318L101.258 117.898H117.451V104.318Z" fill="#029AAD"/>
<g opacity="0.4">
<path d="M117.451 104.318L101.258 117.898H117.451V104.318Z" fill="black"/>
</g>
<path d="M198.667 165.1H107.964V234.986H198.667V165.1Z" fill="#029AAD"/>
<path opacity="0.3" d="M198.667 165.1H107.964V234.986H198.667V165.1Z" fill="black"/>
<path d="M175.942 234.492C175.863 234.492 175.796 218.917 175.796 199.706C175.796 180.495 175.863 164.914 175.942 164.914C176.021 164.914 176.088 180.489 176.088 199.706C176.088 218.923 176.021 234.492 175.942 234.492Z" fill="#263238"/>
<path d="M190.976 219.08H184.022V226.932H190.976V219.08Z" fill="#F5F5F5"/>
<path d="M145.937 165.285H135.635V180.197H145.937V165.285Z" fill="#263238"/>
<path d="M145.937 219.867H135.635V234.778H145.937V219.867Z" fill="#263238"/>
<path d="M197.879 165.1H197.643H196.962L194.346 165.128L184.708 165.173L152.925 165.246L121.13 165.207L111.498 165.162L108.881 165.134H108.195H107.964H108.195H108.881L111.498 165.105L121.13 165.06L152.925 165.016L184.708 165.06L194.346 165.105L196.962 165.134H197.643L197.879 165.1Z" fill="#263238"/>
<path d="M42.4342 44.105L32.5543 41.6769H32.6274C30.0763 43.2979 27.1264 44.1829 24.1034 44.2342C22.3138 44.2424 20.533 43.9828 18.8203 43.4642C15.8091 42.4984 13.1377 40.6915 11.1217 38.2573C9.10572 35.8231 7.82945 32.8632 7.44374 29.7274C7.14081 27.3559 7.36382 24.9468 8.09695 22.671C8.83009 20.3951 10.0554 18.3083 11.686 16.5583C12.5432 15.6178 13.5039 14.7769 14.5499 14.0516C15.0787 13.7199 15.6076 13.3771 16.159 13.0904L16.9973 12.6858L17.4137 12.4834L17.8525 12.326C20.1118 11.4512 22.5353 11.0809 24.953 11.2413C28.1932 11.4514 31.2986 12.6151 33.8779 14.5855C36.4571 16.556 38.3947 19.2451 39.4466 22.3139C40.0309 24.0305 40.3386 25.8291 40.358 27.6422C40.3721 30.6554 39.5524 33.614 37.9893 36.1911V36.1012C40.735 41.053 42.1191 43.5541 42.4285 44.105C42.1078 43.5429 40.6731 41.0867 37.8318 36.1855V36.1406V36.0956C39.3387 33.5434 40.1171 30.6276 40.0823 27.6647C40.0562 25.8806 39.7447 24.1121 39.1596 22.4263C38.1192 19.4202 36.2143 16.7876 33.6832 14.858C31.1521 12.9284 28.1075 11.7876 24.9305 11.5785C22.5604 11.4242 20.1852 11.7886 17.9707 12.6464L17.5431 12.7982L17.1324 13.0005L16.3109 13.3939C15.7483 13.6806 15.2532 14.0122 14.7299 14.3382C13.7041 15.0441 12.7605 15.8623 11.9167 16.7776C10.3159 18.4954 9.11268 20.5439 8.39222 22.7778C7.67176 25.0118 7.45168 27.3766 7.74757 29.705C8.26919 33.9706 10.4599 37.8565 13.8409 40.5134C15.3525 41.7099 17.0679 42.6238 18.9047 43.2113C20.5866 43.7307 22.3373 43.9941 24.0978 43.9925C27.0845 43.9606 30.0047 43.1068 32.5374 41.5251H32.5711H32.633L42.4342 44.105Z" fill="#263238"/>
<path d="M22.5055 20.4028L23.0063 28.6651C23.0263 28.991 23.1649 29.2983 23.396 29.5292C23.6271 29.7601 23.9347 29.8986 24.261 29.9185C24.6042 29.9379 24.9419 29.8252 25.2045 29.6036C25.4672 29.382 25.6349 29.0683 25.6732 28.7269L26.5903 20.4478C26.6062 20.2997 26.5905 20.1498 26.5441 20.0083C26.4977 19.8667 26.4217 19.7366 26.3212 19.6265C26.2206 19.5165 26.0978 19.4291 25.9609 19.3701C25.8239 19.3111 25.676 19.2819 25.5269 19.2843H23.5183C23.3773 19.2885 23.2387 19.3211 23.1107 19.3802C22.9827 19.4392 22.8679 19.5235 22.7733 19.628C22.6787 19.7325 22.6063 19.855 22.5602 19.9881C22.5142 20.1212 22.4956 20.2623 22.5055 20.4028V20.4028Z" fill="#029AAD"/>
<path d="M26.4442 34.5331C26.3183 34.9105 26.0832 35.2422 25.7687 35.4862C25.4542 35.7302 25.0743 35.8756 24.677 35.904C24.2798 35.9324 23.8831 35.8425 23.537 35.6457C23.1909 35.4489 22.9109 35.1541 22.7325 34.7984C22.5541 34.4427 22.4852 34.0422 22.5346 33.6474C22.584 33.2527 22.7494 32.8814 23.0099 32.5805C23.2705 32.2796 23.6144 32.0627 23.9984 31.957C24.3823 31.8514 24.789 31.8618 25.167 31.987C25.4184 32.0702 25.6508 32.2021 25.8511 32.3751C26.0513 32.5482 26.2155 32.759 26.3341 32.9955C26.4527 33.232 26.5235 33.4895 26.5424 33.7533C26.5613 34.0172 26.5279 34.2821 26.4442 34.5331Z" fill="#029AAD"/>
</g>
<defs>
<clipPath id="clip0_3064_13468">
<rect width="256" height="240" fill="white"/>
</clipPath>
</defs>
</svg>
