<svg width="17" height="18" viewBox="0 0 17 18" fill="none" xmlns="http://www.w3.org/2000/svg">
<path d="M6.89552 6.45L7.77924 5.03645C8.11272 4.50237 8.68789 4.18333 9.31802 4.18333H11.9V1.35C11.9 1.1936 11.7731 1.06667 11.6167 1.06667H5.95004V3.33333C5.95004 3.80197 5.56867 4.18333 5.10004 4.18333H2.83337V6.45H6.89552ZM7.50837 2.2H10.3417C10.5766 2.2 10.7667 2.3904 10.7667 2.625C10.7667 2.8596 10.5766 3.05 10.3417 3.05H7.50837C7.27349 3.05 7.08337 2.8596 7.08337 2.625C7.08337 2.3904 7.27349 2.2 7.50837 2.2Z" fill="#029AAD"/>
<path d="M11.3334 7.86667C8.82985 7.86667 6.80005 9.89647 6.80005 12.4C6.80005 14.9035 8.82985 16.9333 11.3334 16.9333C13.8369 16.9333 15.8667 14.9035 15.8667 12.4C15.8667 9.89647 13.8369 7.86667 11.3334 7.86667ZM11.3334 11.8333C12.4268 11.8333 13.3167 12.5958 13.3167 13.5333C13.3167 14.302 12.7183 14.9523 11.9 15.1617V15.2333C11.9 15.5461 11.6462 15.8 11.3334 15.8C11.0206 15.8 10.7667 15.5461 10.7667 15.2333V15.1617C10.0207 14.9656 9.56992 14.412 9.4036 14.0572C9.36733 13.9793 9.35005 13.8974 9.35005 13.8167C9.35005 13.5016 9.60647 13.25 9.91672 13.25C10.1298 13.25 10.3338 13.371 10.4298 13.5761C10.4539 13.6234 10.7123 14.1 11.3334 14.1C11.7861 14.1 12.1834 13.8351 12.1834 13.5333C12.1834 13.2316 11.7861 12.9667 11.3334 12.9667C10.24 12.9667 9.35005 12.2042 9.35005 11.2667C9.35005 10.498 9.94845 9.84773 10.7667 9.63835V9.56667C10.7667 9.25387 11.0206 9 11.3334 9C11.6462 9 11.9 9.25387 11.9 9.56667V9.63835C12.6461 9.83442 13.0968 10.3881 13.2632 10.7428C13.2994 10.8207 13.3167 10.9026 13.3167 10.9833C13.3167 11.2978 13.0609 11.55 12.75 11.55C12.5375 11.55 12.3335 11.4293 12.2369 11.2239C12.2128 11.1766 11.9544 10.7 11.3334 10.7C10.8806 10.7 10.4834 10.9649 10.4834 11.2667C10.4834 11.5684 10.8806 11.8333 11.3334 11.8333Z" fill="#029AAD"/>
<path d="M3.03397 3.61667H5.10004C5.25644 3.61667 5.38337 3.48973 5.38337 3.33333V1.26727C5.38337 1.14628 5.28477 1.06667 5.18136 1.06667C5.13206 1.06667 5.08191 1.08452 5.04111 1.1256L2.89202 3.27468C2.85037 3.31605 2.83337 3.36762 2.83337 3.41777C2.83337 3.51977 2.91412 3.61667 3.03397 3.61667Z" fill="#029AAD"/>
<path d="M11.3333 7.01667C12.1343 7.01667 12.8919 7.19631 13.575 7.51024L14.1233 6.00291C14.1508 5.92726 14.1666 5.84736 14.1666 5.76661C14.1666 5.36342 13.8541 5.03334 13.4107 5.03334H9.31796C8.98533 5.03334 8.67621 5.20476 8.49969 5.48696L7.36664 7.30001H1.59713C1.14606 7.30001 0.849976 7.64822 0.849976 8.01004C0.849976 8.09816 0.862726 8.18599 0.892476 8.26901L3.22743 14.7551C3.33084 15.0418 3.60313 15.2333 3.90828 15.2333H6.76201C6.25059 14.4097 5.94998 13.441 5.94998 12.4C5.94998 9.38987 8.39458 7.01667 11.3333 7.01667Z" fill="#029AAD"/>
</svg>
