<svg width="10" height="10" viewBox="0 0 10 10" fill="none" xmlns="http://www.w3.org/2000/svg">
<path d="M1.70993 0.0479698C1.53593 0.101971 1.44193 0.17397 1.12193 0.48797C0.38593 1.21197 0.25193 1.35797 0.17393 1.52397C-0.0140702 1.91797 -0.0240702 2.37397 0.13993 3.00797C0.23593 3.38397 0.50993 4.06197 0.66793 4.31997C0.70593 4.37997 0.75793 4.47997 0.78593 4.53997C0.83393 4.65197 1.05193 5.02197 1.07993 5.03997C1.08793 5.04597 1.14793 5.12997 1.21193 5.22997C1.27793 5.32797 1.39393 5.49597 1.46993 5.59997C1.54793 5.70397 1.61993 5.80397 1.62993 5.82197C1.64193 5.83997 1.72593 5.94997 1.81993 6.06197C2.43593 6.81597 3.16793 7.54997 3.88993 8.13797C3.98993 8.21997 4.08393 8.29997 4.09993 8.31997C4.11793 8.33797 4.15393 8.36597 4.17993 8.37997C4.20793 8.39397 4.31193 8.46597 4.40993 8.53997C4.86193 8.87397 5.18993 9.08597 5.50993 9.24997C5.64393 9.31797 5.77393 9.38797 5.80193 9.40597C5.86793 9.44997 6.26193 9.62597 6.48393 9.71197C7.25393 10.008 7.95993 10.064 8.39393 9.86197C8.46193 9.82997 8.55193 9.77997 8.59393 9.75197C8.63593 9.72397 8.91393 9.45597 9.21193 9.15797C9.89593 8.47597 9.96793 8.36397 9.96993 7.99997C9.96993 7.67997 9.90993 7.56597 9.52193 7.17197C8.97993 6.61797 8.25193 5.89797 8.18793 5.84797C8.15393 5.82197 8.05793 5.77797 7.97193 5.74997C7.60593 5.62997 7.21793 5.72397 6.98593 5.98797C6.90393 6.08197 6.87993 6.12197 6.77193 6.36397C6.65393 6.62997 6.44593 6.80597 6.15193 6.88997C5.99593 6.93597 5.69993 6.92197 5.52993 6.86197C5.20793 6.74797 4.81593 6.52197 4.49393 6.26597C4.31793 6.12397 3.83393 5.63997 3.69393 5.46397C3.54593 5.27797 3.37993 5.02797 3.37993 4.98997C3.37993 4.97397 3.37193 4.95997 3.36393 4.95997C3.33793 4.95997 3.17193 4.59597 3.10793 4.39997C2.97593 3.99197 3.07793 3.60997 3.38393 3.35997C3.45593 3.30397 3.58393 3.22997 3.70593 3.17797C3.87993 3.10397 3.92993 3.07197 4.04193 2.95997C4.15193 2.84797 4.18193 2.80397 4.23193 2.66997C4.27993 2.53797 4.28993 2.47997 4.28993 2.32997C4.28993 2.13397 4.23393 1.92597 4.14793 1.80997C4.09793 1.73997 3.34593 0.98197 2.85593 0.50597C2.51393 0.17397 2.42993 0.11397 2.22193 0.0519705C2.09193 0.0139704 1.82393 0.0119705 1.70993 0.0479698Z" fill="#7F7F7F"/>
</svg>
