<svg width="15" height="16" viewBox="0 0 15 16" fill="none" xmlns="http://www.w3.org/2000/svg">
<path d="M7.2391 0.544767C7.16875 0.571151 7.05443 0.64737 6.987 0.714796C6.75249 0.946387 6.76715 0.738249 6.76715 4.19453V7.26678H3.69504C0.23891 7.26678 0.447039 7.25505 0.215458 7.48665C-0.0718194 7.77394 -0.0718194 8.22539 0.215458 8.51268C0.447039 8.74427 0.23891 8.73255 3.69504 8.73255H6.76715V11.8048C6.76715 15.2611 6.75542 15.0529 6.987 15.2845C7.27428 15.5718 7.72572 15.5718 8.013 15.2845C8.24458 15.0529 8.23285 15.2611 8.23285 11.8048V8.73255H11.305C14.7611 8.73255 14.553 8.74427 14.7845 8.51268C15.0718 8.22539 15.0718 7.77394 14.7845 7.48665C14.553 7.25505 14.7611 7.26678 11.305 7.26678H8.23285V4.19453C8.23285 0.738249 8.24458 0.946387 8.013 0.714796C7.81073 0.509588 7.51759 0.448027 7.2391 0.544767Z" fill="#029AAD"/>
</svg>
