<svg width="20" height="20" viewBox="0 0 20 20" fill="none" xmlns="http://www.w3.org/2000/svg">
<path d="M2.41196 1.02001C2.07196 1.11201 1.79996 1.27201 1.53596 1.53601C1.39996 1.67201 1.24396 1.87601 1.18396 1.99201C0.967961 2.42001 0.959961 2.50001 0.959961 4.53601C0.959961 6.36801 0.963961 6.42001 1.04396 6.59201C1.24396 7.00401 1.76796 7.11201 2.12396 6.81201C2.35996 6.61201 2.35996 6.61601 2.35996 4.62001C2.35996 2.63601 2.36396 2.60001 2.58396 2.45201C2.68796 2.38401 2.84396 2.38001 4.61996 2.36001C6.03196 2.34401 6.56396 2.32801 6.62396 2.29201C6.85996 2.15601 7.03196 1.79601 6.97996 1.54801C6.93596 1.34001 6.77996 1.13601 6.59196 1.04401C6.41996 0.960006 6.37196 0.960006 4.51596 0.964006C3.01596 0.964006 2.57596 0.976006 2.41196 1.02001Z" fill="#029AAD"/>
<path d="M13.396 1.05201C12.988 1.26801 12.888 1.76801 13.188 2.12401C13.388 2.36001 13.388 2.36001 15.368 2.36401C17.32 2.36401 17.388 2.37201 17.536 2.57201C17.616 2.68401 17.62 2.73601 17.64 4.61201C17.656 6.03201 17.672 6.56401 17.708 6.62401C17.844 6.86001 18.204 7.03201 18.452 6.98001C18.66 6.93601 18.864 6.78001 18.956 6.59201C19.036 6.42001 19.04 6.36801 19.04 4.53601C19.04 2.50001 19.032 2.42001 18.816 1.99201C18.68 1.72401 18.276 1.32001 18.008 1.18401C17.58 0.968007 17.5 0.960007 15.456 0.960007H13.572L13.396 1.05201Z" fill="#029AAD"/>
<path d="M5.73996 5.41601C5.57596 5.48801 5.40796 5.69201 5.37996 5.85201C5.36796 5.92401 5.35996 6.58801 5.36796 7.32801C5.37996 8.61601 5.38396 8.68001 5.46396 8.78401C5.50796 8.84401 5.59596 8.93201 5.65596 8.97601C5.75996 9.05601 5.82396 9.06001 7.16396 9.07201C8.48796 9.08401 8.57196 9.08001 8.74396 9.00401C8.88396 8.94001 8.93996 8.88801 8.99996 8.75201C9.07196 8.59201 9.07996 8.48001 9.07996 7.22401C9.07996 5.93201 9.07596 5.85601 8.99596 5.69601C8.93596 5.57201 8.86796 5.50401 8.74396 5.44401C8.58396 5.36401 8.50796 5.36001 7.21596 5.36001C6.17996 5.36401 5.83196 5.37601 5.73996 5.41601Z" fill="#029AAD"/>
<path d="M11.3 5.41601C11.152 5.48401 11.02 5.62401 10.964 5.77201C10.936 5.84401 10.92 6.37201 10.92 7.23201C10.92 8.48001 10.928 8.59201 11 8.75201C11.06 8.88401 11.116 8.94001 11.248 9.00001C11.408 9.07201 11.52 9.08001 12.776 9.08001C14.068 9.08001 14.144 9.07601 14.304 8.99601C14.428 8.93601 14.496 8.86801 14.56 8.74001C14.64 8.57601 14.644 8.52001 14.632 7.16801C14.62 5.82401 14.616 5.76001 14.536 5.65601C14.492 5.59601 14.404 5.50801 14.344 5.46401C14.24 5.38401 14.18 5.38001 12.828 5.37201C11.716 5.36401 11.396 5.37201 11.3 5.41601Z" fill="#029AAD"/>
<path d="M5.69196 11.004C5.57196 11.064 5.49996 11.136 5.43996 11.26C5.35996 11.424 5.35596 11.48 5.36796 12.832C5.37996 14.176 5.38396 14.24 5.46396 14.344C5.50796 14.404 5.59596 14.492 5.65596 14.536C5.76396 14.616 5.81196 14.62 7.21996 14.62C8.62796 14.62 8.67596 14.616 8.78396 14.536C8.84396 14.492 8.93196 14.404 8.97596 14.344C9.05596 14.24 9.05996 14.176 9.07196 12.836C9.08396 11.512 9.07996 11.428 9.00396 11.256C8.93996 11.116 8.88796 11.06 8.75196 11C8.59196 10.928 8.47996 10.92 7.21996 10.92C5.92396 10.92 5.85196 10.924 5.69196 11.004Z" fill="#029AAD"/>
<path d="M11.248 11C11.12 11.06 11.06 11.12 11 11.248C10.928 11.408 10.92 11.52 10.92 12.776C10.92 14.068 10.924 14.144 11.004 14.304C11.064 14.428 11.132 14.496 11.26 14.56C11.424 14.64 11.48 14.644 12.832 14.632C14.176 14.62 14.24 14.616 14.344 14.536C14.404 14.492 14.492 14.404 14.536 14.344C14.616 14.236 14.62 14.188 14.62 12.78C14.62 11.372 14.616 11.324 14.536 11.216C14.492 11.156 14.404 11.068 14.344 11.024C14.24 10.944 14.176 10.94 12.828 10.932C11.5 10.92 11.412 10.924 11.248 11Z" fill="#029AAD"/>
<path d="M1.42796 13.056C1.23196 13.128 1.13996 13.212 1.03996 13.416C0.963961 13.58 0.959961 13.66 0.959961 15.464C0.959961 17.5 0.967961 17.58 1.18396 18.008C1.31996 18.276 1.72396 18.68 1.99196 18.816C2.41996 19.032 2.49996 19.04 4.53596 19.04C6.36796 19.04 6.41996 19.036 6.59196 18.956C6.77996 18.864 6.93596 18.66 6.97996 18.452C7.03196 18.204 6.85996 17.844 6.62396 17.708C6.56396 17.672 6.03196 17.656 4.61996 17.64C2.84396 17.62 2.68796 17.616 2.58396 17.548C2.36396 17.4 2.35996 17.364 2.35996 15.38C2.35996 13.384 2.35996 13.388 2.12396 13.188C2.00396 13.088 1.77196 13 1.63996 13C1.60796 13.004 1.51196 13.028 1.42796 13.056Z" fill="#029AAD"/>
<path d="M18.108 13.056C18.02 13.088 17.908 13.156 17.852 13.208C17.644 13.4 17.64 13.42 17.636 15.368C17.636 17.32 17.628 17.388 17.428 17.536C17.316 17.616 17.264 17.62 15.388 17.64C13.968 17.656 13.436 17.672 13.376 17.708C13.14 17.844 12.968 18.204 13.02 18.452C13.064 18.66 13.22 18.864 13.408 18.956C13.58 19.036 13.632 19.04 15.464 19.04C17.5 19.04 17.58 19.032 18.008 18.816C18.276 18.68 18.68 18.276 18.816 18.008C19.032 17.58 19.04 17.5 19.04 15.464C19.04 13.632 19.036 13.58 18.956 13.408C18.804 13.096 18.428 12.94 18.108 13.056Z" fill="#029AAD"/>
</svg>
