<svg width="286" height="273" viewBox="0 0 286 273" fill="none" xmlns="http://www.w3.org/2000/svg">
<path fill-rule="evenodd" clip-rule="evenodd" d="M241 3C241 1.61929 242.119 0.500002 243.5 0.500002H263.5C275.926 0.500002 286 10.5736 286 23V43C286 44.3807 284.881 45.5 283.5 45.5C282.119 45.5 281 44.3807 281 43V23C281 13.335 273.165 5.5 263.5 5.5H243.5C242.119 5.5 241 4.38071 241 3Z" fill="white"/>
<path fill-rule="evenodd" clip-rule="evenodd" d="M2.5 45.5C1.11929 45.5 9.34581e-07 44.3807 8.74228e-07 43L0 23C-5.43175e-07 10.5736 10.0736 0.500001 22.5 0.500001L42.5 0.5C43.8807 0.5 45 1.61929 45 3C45 4.38071 43.8807 5.5 42.5 5.5L22.5 5.5C12.835 5.5 5 13.335 5 23L5 43C5 44.3807 3.88071 45.5 2.5 45.5Z" fill="white"/>
<path fill-rule="evenodd" clip-rule="evenodd" d="M283.5 227.5C284.881 227.5 286 228.619 286 230V250C286 262.426 275.926 272.5 263.5 272.5H243.5C242.119 272.5 241 271.381 241 270C241 268.619 242.119 267.5 243.5 267.5H263.5C273.165 267.5 281 259.665 281 250V230C281 228.619 282.119 227.5 283.5 227.5Z" fill="white"/>
<path fill-rule="evenodd" clip-rule="evenodd" d="M45 270C45 271.381 43.8807 272.5 42.5 272.5H22.5C10.0736 272.5 1.86417e-06 262.426 2.95052e-06 250L4.69897e-06 230C4.81968e-06 228.619 1.11929 227.5 2.50001 227.5C3.88072 227.5 5 228.619 5 230L5 250C5 259.665 12.835 267.5 22.5 267.5H42.5C43.8807 267.5 45 268.619 45 270Z" fill="white"/>
</svg>
