<svg width="21" height="20" viewBox="0 0 21 20" fill="none" xmlns="http://www.w3.org/2000/svg">
<path d="M7.41737 0.0440083C5.96537 0.196009 4.48137 0.81201 3.32537 1.74001C2.11737 2.70801 1.26137 3.93201 0.761369 5.40001C-0.0866304 7.89201 0.36137 10.608 1.96937 12.72C2.30137 13.152 3.02137 13.876 3.43337 14.188C4.53337 15.016 5.79737 15.556 7.08537 15.748C7.69337 15.836 8.82537 15.836 9.41337 15.744C10.7294 15.536 11.8454 15.072 12.9494 14.272L13.2254 14.072L16.1494 16.988C19.2254 20.06 19.1614 20 19.4974 20C19.9454 20 20.3334 19.596 20.3334 19.14C20.3294 18.828 20.2694 18.76 17.2854 15.776L14.4054 12.892L14.6054 12.616C15.6534 11.172 16.1374 9.71201 16.1454 7.94001C16.1534 6.38801 15.7934 5.09601 14.9814 3.78001C14.3614 2.77201 13.4294 1.82801 12.4334 1.20401C11.7974 0.800009 10.7814 0.380009 10.0294 0.204008C9.24937 0.0240097 8.22937 -0.0399914 7.41737 0.0440083ZM9.26137 1.76001C11.9374 2.21201 14.0254 4.32801 14.4174 6.98001C14.5134 7.64001 14.5134 8.20001 14.4174 8.86001C14.0214 11.532 11.8654 13.688 9.19337 14.084C5.39337 14.644 2.01337 11.74 2.01337 7.91201C2.01337 6.21201 2.67737 4.64801 3.90537 3.45201C4.67337 2.70801 5.56537 2.18801 6.59337 1.89601C7.37737 1.67201 8.43337 1.62001 9.26137 1.76001Z" fill="white"/>
</svg>
