<svg width="21" height="20" viewBox="0 0 21 20" fill="none" xmlns="http://www.w3.org/2000/svg">
<path d="M9.84827 18.2308C9.85042 18.579 9.75013 18.92 9.56011 19.2106C9.37009 19.5012 9.0989 19.7282 8.78091 19.863C8.46293 19.9978 8.11247 20.0341 7.77398 19.9675C7.43549 19.901 7.12421 19.7344 6.87959 19.4889C6.63498 19.2435 6.46805 18.9302 6.39997 18.5889C6.3319 18.2475 6.36574 17.8934 6.49721 17.5715C6.62868 17.2496 6.85185 16.9744 7.13844 16.7807C7.42502 16.587 7.76211 16.4836 8.10697 16.4836C8.56691 16.4836 9.00818 16.6673 9.33442 16.9947C9.66067 17.322 9.84539 17.7664 9.84827 18.2308ZM17.0202 16.4836C16.6758 16.4836 16.3392 16.5867 16.0528 16.7799C15.7665 16.9731 15.5433 17.2477 15.4115 17.569C15.2797 17.8902 15.2452 18.2438 15.3124 18.5848C15.3796 18.9259 15.5454 19.2391 15.7889 19.485C16.0325 19.7309 16.3427 19.8984 16.6805 19.9662C17.0183 20.0341 17.3684 19.9992 17.6866 19.8662C18.0048 19.7331 18.2767 19.5077 18.4681 19.2186C18.6594 18.9295 18.7615 18.5895 18.7615 18.2418C18.7615 17.7755 18.5781 17.3283 18.2515 16.9986C17.925 16.6688 17.482 16.4836 17.0202 16.4836ZM20.7096 5.76956L18.9465 12.9013C18.7674 13.6119 18.3587 14.242 17.7851 14.6917C17.2115 15.1415 16.5058 15.3854 15.7796 15.3847H9.34765C8.61995 15.3848 7.91309 15.1393 7.33931 14.6874C6.76554 14.2355 6.35774 13.603 6.18067 12.8903L3.56872 2.19822H1.83831C1.54967 2.19822 1.27286 2.08244 1.06876 1.87636C0.864661 1.67028 0.75 1.39078 0.75 1.09934C0.75 0.807902 0.864661 0.528399 1.06876 0.32232C1.27286 0.11624 1.54967 0.000466375 1.83831 0.000466375H4.4176C4.66621 -0.00684706 4.9098 0.0720395 5.10782 0.223993C5.30583 0.375946 5.44633 0.591797 5.50591 0.835612L6.35479 4.39597H19.5233H19.6213C19.7222 4.37973 19.8251 4.37973 19.926 4.39597C20.0671 4.43165 20.1998 4.49553 20.316 4.58385C20.4323 4.67217 20.5298 4.78312 20.6028 4.91016C20.6759 5.03719 20.723 5.17772 20.7413 5.32345C20.7597 5.46917 20.7489 5.61713 20.7096 5.75857V5.76956ZM18.2609 6.59372L16.8352 13.4346L9.89183 14.2858C9.94872 14.5187 8.51231 12.7923 8.69702 12.9431C8.88173 13.0939 9.11023 13.1796 9.34765 13.187H15.7469C15.9955 13.1943 16.2391 13.1154 16.4371 12.9634C16.6351 12.8115 16.7756 12.5956 16.8352 12.3518L18.2609 6.59372Z" fill="#C4C4C4"/>
</svg>
