<svg width="15" height="15" viewBox="0 0 15 15" fill="none" xmlns="http://www.w3.org/2000/svg">
<path d="M10.3437 11.5416C10.3441 11.8568 10.4681 12.1594 10.689 12.3843L10.689 12.3844L10.6919 12.3871C10.9208 12.6024 11.2231 12.7222 11.5373 12.7222C11.8515 12.7222 12.1539 12.6024 12.3828 12.3871L12.3836 12.3863L11.5042 10.4437L11.5012 10.3437C11.5007 10.3437 11.5002 10.3438 11.4997 10.3438C11.1982 10.3531 10.9116 10.4765 10.6976 10.6891M10.3437 11.5416C10.3421 11.3829 10.3726 11.2257 10.4334 11.0792C10.4943 10.9326 10.5841 10.7999 10.6976 10.6891M10.3437 11.5416C10.3437 11.5417 10.3437 11.5419 10.3437 11.542L10.4437 11.541L10.3437 11.5411C10.3437 11.5412 10.3437 11.5414 10.3437 11.5416ZM10.6976 10.6891C10.6977 10.689 10.6978 10.6889 10.6979 10.6888L10.7677 10.7604L10.6972 10.6894C10.6974 10.6893 10.6975 10.6892 10.6976 10.6891ZM6.12499 1.60624V1.50624H6.02499H2.34272C2.12088 1.50624 1.90813 1.59436 1.75126 1.75123C1.59439 1.90809 1.50627 2.12085 1.50627 2.34269V12.653C1.50627 12.8749 1.59439 13.0876 1.75126 13.2445C1.90813 13.4014 2.12088 13.4895 2.34272 13.4895H7.49789C7.66669 13.4895 7.82858 13.5565 7.94793 13.6759C8.06729 13.7953 8.13435 13.9571 8.13435 14.1259C8.13435 14.2947 8.06729 14.4566 7.94793 14.576C7.82858 14.6953 7.66669 14.7624 7.49789 14.7624H2.34272C1.78328 14.7624 1.24676 14.5402 0.851179 14.1446C0.455597 13.749 0.233362 13.2125 0.233362 12.653V2.34269C0.233362 1.78325 0.455597 1.24673 0.851179 0.851148C1.24676 0.455567 1.78328 0.233331 2.34272 0.233331H6.79186C6.86216 0.242776 6.92998 0.265781 6.99154 0.301088L7.02134 0.318178L7.05536 0.313347C7.06357 0.312181 7.07186 0.311772 7.08012 0.312119C7.14004 0.341913 7.19531 0.380301 7.24418 0.426087L11.6607 4.84258C11.7053 4.89025 11.743 4.944 11.7724 5.00221V5.04547V5.06184L11.7776 5.07735C11.7965 5.13346 11.8096 5.19135 11.8166 5.25012V5.25024V5.25048V5.25071V5.25094V5.25118V5.25141V5.25164V5.25187V5.25209V5.25232V5.25255V5.25277V5.253V5.25322V5.25344V5.25366V5.25388V5.2541V5.25432V5.25454V5.25476V5.25497V5.25519V5.2554V5.25562V5.25583V5.25604V5.25625V5.25646V5.25667V5.25687V5.25708V5.25729V5.25749V5.2577V5.2579V5.2581V5.2583V5.2585V5.2587V5.2589V5.2591V5.2593V5.25949V5.25969V5.25988V5.26007V5.26027V5.26046V5.26065V5.26084V5.26103V5.26122V5.2614V5.26159V5.26178V5.26196V5.26215V5.26233V5.26251V5.26269V5.26287V5.26305V5.26323V5.26341V5.26359V5.26376V5.26394V5.26411V5.26429V5.26446V5.26463V5.2648V5.26497V5.26514V5.26531V5.26548V5.26565V5.26581V5.26598V5.26614V5.26631V5.26647V5.26663V5.26679V5.26696V5.26712V5.26727V5.26743V5.26759V5.26775V5.2679V5.26806V5.26821V5.26837V5.26852V5.26867V5.26882V5.26897V5.26912V5.26927V5.26942V5.26957V5.26972V5.26986V5.27001V5.27015V5.2703V5.27044V5.27058V5.27072V5.27086V5.271V5.27114V5.27128V5.27142V5.27156V5.27169V5.27183V5.27196V5.2721V5.27223V5.27236V5.27249V5.27263V5.27276V5.27289V5.27302V5.27314V5.27327V5.2734V5.27352V5.27365V5.27377V5.2739V5.27402V5.27414V5.27427V5.27439V5.27451V5.27463V5.27475V5.27487V5.27498V5.2751V5.27522V5.27533V5.27545V5.27556V5.27568V5.27579V5.2759V5.27601V5.27613V5.27624V5.27635V5.27646V5.27656V5.27667V5.27678V5.27689V5.27699V5.2771V5.2772V5.27731V5.27741V5.27751V5.27761V5.27772V5.27782V5.27792V5.27802V5.27811V5.27821V5.27831V5.27841V5.2785V5.2786V5.2787V5.27879V5.27888V5.27898V5.27907V5.27916V5.27925V5.27935V5.27944V5.27953V5.27961V5.2797V5.27979V5.27988V5.27997V5.28005V5.28014V5.28022V5.28031V5.28039V5.28047V5.28056V5.28064V5.28072V5.2808V5.28088V5.28096V5.28104V5.28112V5.2812V5.28128V5.28135V5.28143V5.28151V5.28158V5.28166V5.28173V5.28181V5.28188V5.28195V5.28202V5.28209V5.28217V5.28224V5.28231V5.28238V5.28245V5.28251V5.28258V5.28265V5.28272V5.28278V5.28285V5.28292V5.28298V5.28304V5.28311V5.28317V5.28324V5.2833V5.28336V5.28342V5.28348V5.28354V5.2836V5.28366V5.28372V5.28378V5.28384V5.2839V5.28395V5.28401V5.28407V5.28412V5.28418V5.28423V5.28429V5.28434V5.28439V5.28445V5.2845V5.28455V5.2846V5.28465V5.2847V5.28475V5.2848V5.28485V5.2849V5.28495V5.285V5.28505V5.28509V5.28514V5.28519V5.28523V5.28528V5.28532V5.28537V5.28541V5.28545V5.2855V5.28554V5.28558V5.28563V5.28567V5.28571V5.28575V5.28579V5.28583V5.28587V5.28591V5.28595V5.28599V5.28602V5.28606V5.2861V5.28614V5.28617V5.28621V5.28625V5.28628V5.28632V5.28635V5.28639V5.28642V5.28645V5.28649V5.28652V5.28655V5.28658V5.28662V5.28665V5.28668V5.28671V5.28674V5.28677V5.2868V5.28683V5.28686V5.28689V5.28691V5.28694V5.28697V5.287V5.28702V5.28705V5.28708V5.2871V5.28713V5.28716V5.28718V5.28721V5.28723V5.28725V5.28728V5.2873V5.28732V5.28735V5.28737V5.28739V5.28741V5.28744V5.28746V5.28748V5.2875V5.28752V5.28754V5.28756V5.28758V5.2876V5.28762V5.28764V5.28766V5.28768V5.28769V5.28771V5.28773V5.28775V5.28776V5.28778V5.2878V5.28781V5.28783V5.28785V5.28786V5.28788V5.28789V5.28791V5.28792V5.28793V5.28795V5.28796V5.28798V5.28799V5.288V5.28802V5.28803V5.28804V5.28805V5.28807V5.28808V5.28809V5.2881V5.28811V5.28812V5.28813V5.28814V5.28815V5.28816V5.28817V5.28818V5.28819V5.2882V5.28821V5.28822V5.28823V5.28824V5.28825V5.28826V5.28826V5.28827V5.28828V5.28829V5.28829V5.2883V5.28831V5.28832V5.28833V5.28835V5.28836V5.28837V5.28838V5.28839V5.2884V5.28841V5.28842V5.28842V5.28843V5.28844V5.28845V5.28846V5.28847V5.28848V5.28848V5.28849V5.2885V6.76141C11.8166 6.93021 11.7496 7.09209 11.6302 7.21145C11.5108 7.33081 11.349 7.39786 11.1802 7.39786C11.0114 7.39786 10.8495 7.33081 10.7301 7.21145C10.6108 7.09209 10.5437 6.93021 10.5437 6.76141V6.02496V5.92496H10.4437H8.23435C7.67491 5.92496 7.13839 5.70272 6.7428 5.30714C6.34722 4.91156 6.12499 4.37503 6.12499 3.8156V1.60624ZM7.5686 2.57393L7.39789 2.40322V2.64464V3.8156C7.39789 4.03744 7.48602 4.25019 7.64289 4.40706C7.79975 4.56392 8.01251 4.65205 8.23435 4.65205H9.40531H9.64673L9.47602 4.48134L7.5686 2.57393ZM13.7004 12.6991L13.6623 12.7657L13.7168 12.8198L14.5784 13.6741C14.5784 13.6741 14.5784 13.6741 14.5784 13.6741C14.6381 13.7332 14.6854 13.8036 14.7177 13.8812C14.7501 13.9587 14.7667 14.0419 14.7667 14.1259C14.7667 14.21 14.7501 14.2931 14.7177 14.3707C14.6854 14.4483 14.6381 14.5187 14.5784 14.5778L14.5779 14.5784C14.5187 14.6381 14.4483 14.6854 14.3707 14.7177C14.2932 14.75 14.21 14.7667 14.126 14.7667C14.042 14.7667 13.9588 14.75 13.8812 14.7177C13.8037 14.6854 13.7333 14.6381 13.6741 14.5784C13.6741 14.5784 13.6741 14.5784 13.6741 14.5784L12.8198 13.7168L12.7667 13.6632L12.7005 13.6996C12.3268 13.9056 11.9056 14.0103 11.4789 14.0033C11.0521 13.9964 10.6346 13.8779 10.2678 13.6598C9.90094 13.4417 9.59748 13.1315 9.38751 12.7599C9.17755 12.3884 9.06836 11.9683 9.07083 11.5416L9.07078 11.5391C9.06143 11.043 9.20171 10.5555 9.47336 10.1403C9.745 9.72502 10.1354 9.4012 10.5937 9.211C11.052 9.0208 11.557 8.97304 12.0429 9.07394C12.5287 9.17484 12.9729 9.41972 13.3176 9.77668L13.3176 9.77669L13.3184 9.77757C13.6928 10.1558 13.9329 10.6463 14.0019 11.1739C14.0708 11.7016 13.965 12.2373 13.7004 12.6991ZM3.36559 7.78428C3.48495 7.66492 3.64683 7.59786 3.81563 7.59786H8.23435C8.40314 7.59786 8.56503 7.66492 8.68439 7.78428C8.80375 7.90363 8.8708 8.06552 8.8708 8.23432C8.8708 8.40311 8.80375 8.565 8.68439 8.68436C8.56503 8.80371 8.40314 8.87077 8.23435 8.87077H3.81563C3.64683 8.87077 3.48495 8.80371 3.36559 8.68436C3.24623 8.565 3.17917 8.40311 3.17917 8.23432C3.17917 8.06552 3.24623 7.90363 3.36559 7.78428Z" fill="#7F7F7F" stroke="white" stroke-width="0.2"/>
</svg>
