<svg width="14" height="13" viewBox="0 0 14 13" fill="none" xmlns="http://www.w3.org/2000/svg">
<path d="M6.41604 0.0253909C5.16174 0.147266 4.00393 0.609375 2.98831 1.39141C2.49319 1.77227 1.85081 2.48828 1.4801 3.07227C1.32014 3.32363 1.00784 3.96348 0.896118 4.26816C0.771704 4.6084 0.637134 5.13145 0.571118 5.53516C0.492407 6.03027 0.492407 6.96973 0.571118 7.46484C0.685376 8.16562 0.865649 8.7293 1.17288 9.35645C1.50803 10.0395 1.85588 10.5244 2.41448 11.0855C2.97561 11.6441 3.46057 11.992 4.14358 12.3271C4.77073 12.6344 5.3344 12.8146 6.03518 12.9289C6.5303 13.0076 7.46975 13.0076 7.96487 12.9289C8.66565 12.8146 9.22932 12.6344 9.85647 12.3271C10.5395 11.992 11.0244 11.6441 11.5856 11.0855C12.1442 10.5244 12.492 10.0395 12.8272 9.35645C13.0506 8.90195 13.1623 8.60488 13.2842 8.14785C13.4442 7.53848 13.4823 7.20586 13.4823 6.5C13.4823 5.79414 13.4442 5.46152 13.2842 4.85215C13.1623 4.39512 13.0506 4.09805 12.8272 3.64355C12.492 2.96055 12.1442 2.47559 11.5856 1.91445C11.0244 1.35586 10.5395 1.00801 9.85647 0.672852C9.23186 0.365625 8.65295 0.182813 7.97756 0.0761721C7.60432 0.0177737 6.77151 -0.010156 6.41604 0.0253909ZM7.60432 1.04355C8.84338 1.17813 9.97581 1.7291 10.8746 2.62539C11.9283 3.6791 12.4844 5.01973 12.4844 6.5C12.4844 7.98027 11.9283 9.3209 10.8746 10.3746C9.82092 11.4283 8.4803 11.9844 7.00002 11.9844C5.51975 11.9844 4.17913 11.4283 3.12542 10.3746C2.0717 9.3209 1.51565 7.98027 1.51565 6.5C1.51565 5.01973 2.0717 3.6791 3.12542 2.62539C4.01155 1.73926 5.15666 1.18066 6.36526 1.04355C6.64456 1.01309 7.31995 1.01055 7.60432 1.04355Z" fill="black"/>
<path d="M6.78167 3.06973C6.65979 3.12559 6.56077 3.24746 6.5176 3.38965C6.49729 3.46328 6.49221 3.93555 6.49729 5.07813C6.50491 6.62441 6.50745 6.66758 6.55823 6.7666C6.59885 6.84785 6.80198 7.01543 7.62463 7.6375C8.18069 8.06152 8.6885 8.43731 8.75198 8.47539C9.176 8.7293 9.6762 8.27481 9.46292 7.83301C9.41213 7.72637 9.30803 7.64258 8.45745 7.00274L7.50784 6.2918V4.875C7.50784 3.88477 7.50022 3.43535 7.47991 3.37441C7.40627 3.15859 7.22092 3.02149 7.00002 3.02149C6.93655 3.02149 6.83752 3.04434 6.78167 3.06973Z" fill="black"/>
</svg>
