<svg width="15" height="15" viewBox="0 0 15 15" fill="none" xmlns="http://www.w3.org/2000/svg">
<path d="M6.5625 4.21875C6.5625 3.95987 6.77237 3.75 7.03125 3.75C7.29013 3.75 7.5 3.95987 7.5 4.21875V8.4375H4.21875C3.95987 8.4375 3.75 8.22763 3.75 7.96875C3.75 7.70987 3.95987 7.5 4.21875 7.5H6.5625V4.21875Z" fill="#001529"/>
<path fill-rule="evenodd" clip-rule="evenodd" d="M1.875 7.03125C1.875 9.68906 3.94687 12.3281 7.17188 12.3281C9.77625 12.3281 11.0634 10.4006 11.6128 9.375H9.98438C9.86005 9.375 9.74083 9.32561 9.65292 9.23771C9.56501 9.1498 9.51562 9.03057 9.51562 8.90625C9.51562 8.78193 9.56501 8.6627 9.65292 8.57479C9.74083 8.48689 9.86005 8.4375 9.98438 8.4375H12.7969C12.9212 8.4375 13.0404 8.48689 13.1283 8.57479C13.2162 8.6627 13.2656 8.78193 13.2656 8.90625V11.7187C13.2656 11.8431 13.2162 11.9623 13.1283 12.0502C13.0404 12.1381 12.9212 12.1875 12.7969 12.1875C12.6726 12.1875 12.5533 12.1381 12.4654 12.0502C12.3775 11.9623 12.3281 11.8431 12.3281 11.7187V10.0191C11.6672 11.1834 10.14 13.2656 7.17188 13.2656C3.36281 13.2656 0.9375 10.1391 0.9375 7.03125C0.9375 3.92344 3.36281 0.796875 7.17188 0.796875C8.99438 0.796875 10.5113 1.51875 11.5922 2.6175C12.1649 3.20213 12.6192 3.89198 12.93 4.64906C12.9534 4.706 12.9653 4.76699 12.9652 4.82855C12.965 4.89011 12.9527 4.95103 12.929 5.00783C12.9052 5.06463 12.8706 5.11621 12.8269 5.15961C12.7832 5.20301 12.7315 5.23739 12.6745 5.26078C12.6176 5.28417 12.5566 5.29612 12.495 5.29594C12.4335 5.29576 12.3726 5.28346 12.3158 5.25974C12.259 5.23602 12.2074 5.20134 12.164 5.15768C12.1206 5.11403 12.0862 5.06225 12.0628 5.00531C11.8003 4.36687 11.4141 3.77344 10.9228 3.27469C10.0116 2.34656 8.73281 1.73438 7.17188 1.73438C3.94687 1.73437 1.875 4.37344 1.875 7.03125Z" fill="#001529"/>
</svg>
