<svg width="15" height="15" viewBox="0 0 15 15" fill="none" xmlns="http://www.w3.org/2000/svg">
<path fill-rule="evenodd" clip-rule="evenodd" d="M6.2407 1.65102C7.07915 1.46064 7.94842 1.45014 8.79123 1.6202C9.63404 1.79027 10.4313 2.13704 11.1303 2.63766C11.8294 3.13829 12.4145 3.7814 12.8471 4.52463C13.2796 5.26787 13.5498 6.09434 13.6398 6.9496C13.6556 7.10014 13.611 7.2508 13.5158 7.36845C13.4206 7.48609 13.2825 7.56108 13.132 7.57693C12.9815 7.59277 12.8309 7.54816 12.7133 7.45291C12.5957 7.35767 12.5207 7.21959 12.5049 7.06906C12.4071 6.13977 12.0481 5.2572 11.4695 4.52359C10.8908 3.78998 10.1163 3.23534 9.23548 2.92392C8.35469 2.6125 7.40371 2.55704 6.4927 2.76397C5.58169 2.9709 4.74793 3.43174 4.08799 4.09313C3.42806 4.75451 2.96896 5.58937 2.76386 6.50099C2.55877 7.41262 2.61608 8.36371 2.92915 9.2441C3.24223 10.1245 3.79825 10.8981 4.53283 11.4755C5.2674 12.0528 6.15046 12.4101 7.07973 12.5061C7.1548 12.5131 7.22773 12.5349 7.29432 12.5703C7.36091 12.6057 7.41983 12.6539 7.46768 12.7122C7.51552 12.7704 7.55134 12.8376 7.57307 12.9098C7.5948 12.9821 7.602 13.0579 7.59426 13.1329C7.58652 13.2079 7.56399 13.2806 7.52797 13.3469C7.49196 13.4131 7.44317 13.4716 7.38443 13.5189C7.32569 13.5661 7.25817 13.6013 7.18576 13.6223C7.11335 13.6433 7.0375 13.6498 6.96258 13.6413C5.52712 13.4936 4.19086 12.8404 3.1923 11.7984C2.19373 10.7565 1.59786 9.39345 1.51103 7.95269C1.4242 6.51193 1.85207 5.08719 2.71827 3.93277C3.58447 2.77835 4.83262 1.96938 6.23994 1.65025L6.2407 1.65102ZM9.27656 9.27553C9.38353 9.16867 9.52853 9.10865 9.67972 9.10865C9.8309 9.10865 9.97591 9.16867 10.0829 9.27553L11.3912 10.5842L12.6996 9.27553C12.7518 9.21947 12.8148 9.1745 12.8848 9.14331C12.9548 9.11212 13.0303 9.09535 13.1069 9.094C13.1835 9.09265 13.2596 9.10674 13.3307 9.13544C13.4017 9.16414 13.4662 9.20686 13.5204 9.26105C13.5746 9.31523 13.6173 9.37978 13.646 9.45083C13.6747 9.52189 13.6888 9.598 13.6874 9.67462C13.6861 9.75124 13.6693 9.8268 13.6381 9.8968C13.6069 9.9668 13.562 10.0298 13.5059 10.082L12.1976 11.3907L13.5059 12.6994C13.562 12.7516 13.6069 12.8146 13.6381 12.8846C13.6693 12.9546 13.6861 13.0302 13.6874 13.1068C13.6888 13.1834 13.6747 13.2595 13.646 13.3306C13.6173 13.4016 13.5746 13.4662 13.5204 13.5204C13.4662 13.5746 13.4017 13.6173 13.3307 13.646C13.2596 13.6747 13.1835 13.6888 13.1069 13.6874C13.0303 13.6861 12.9548 13.6693 12.8848 13.6381C12.8148 13.6069 12.7518 13.5619 12.6996 13.5059L11.3912 12.1972L10.0829 13.5059C10.0306 13.5619 9.96766 13.6069 9.89768 13.6381C9.8277 13.6693 9.75215 13.6861 9.67555 13.6874C9.59895 13.6888 9.52286 13.6747 9.45182 13.646C9.38078 13.6173 9.31625 13.5746 9.26208 13.5204C9.2079 13.4662 9.1652 13.4016 9.1365 13.3306C9.10781 13.2595 9.09372 13.1834 9.09507 13.1068C9.09642 13.0302 9.11319 12.9546 9.14437 12.8846C9.17555 12.8146 9.22051 12.7516 9.27656 12.6994L10.5849 11.3907L9.27656 10.082C9.16972 9.97504 9.10971 9.83 9.10971 9.67878C9.10971 9.52756 9.16972 9.38253 9.27656 9.27553Z" fill="#001529"/>
<path d="M7.3125 4.96875C7.3125 4.70987 7.52237 4.5 7.78125 4.5C8.04013 4.5 8.25 4.70987 8.25 4.96875V9.1875H4.96875C4.70987 9.1875 4.5 8.97763 4.5 8.71875C4.5 8.45987 4.70987 8.25 4.96875 8.25H7.3125V4.96875Z" fill="#001529"/>
</svg>
